<?xml version="1.0" standalone="no"?>
  <!DOCTYPE svg PUBLIC "-//W3C//DTD SVG 1.1//EN" "http://www.w3.org/Graphics/SVG/1.1/DTD/svg11.dtd" >
  <svg>
  <metadata>
  Created by font-carrier
  </metadata>
  <defs>
  <font id="BikhamCyrScript" horiz-adv-x="2768" vert-adv-y="2768" >
    <font-face
      
      font-family="Bikham Cyr Script"
      
      font-weight="400"
      
      font-stretch="normal"
      
      units-per-em="1000"
      
      ascent="1254"
      
      descent="-410"
      
    />
      <missing-glyph />

      

      
      <glyph glyph-name="uni21" unicode="&#x21;" d="M317 334Q317 309 92 74Q85 67 83 67L79 67Q78 68 77 70Q83 83 120 133Q146 167 171 200Q179 211 245 307Q267 339 306 339Q317 339 317 334M84 33Q84 19 64.50 5Q45-9 30-9Q26-5 26 10Q26 44 67 44Q84 44 84 33Z"  horiz-adv-x="239" vert-adv-y="1000"  />

      
      <glyph glyph-name="uni22" unicode="&#x22;" d="M283 332Q283 325 236 285.50Q189 246 183 246L183 246Q182 247 182 249Q182 250 187 257Q201 279 228 321Q240 340 267 340Q283 340 283 332M204 332Q204 325 157 285.50Q110 246 105 246L104 246L104 246Q104 250 123 282Q136 301 147.50 320.50Q159 340 188 340Q204 340 204 332Z"  horiz-adv-x="190" vert-adv-y="1000"  />

      
      <glyph glyph-name="uni23" unicode="&#x23;" d="M387 283Q387 274 310 185L361 185Q377 185 377 181Q377 177 361 177L303 177L248 110Q326 110 329 106Q329 101 313 101L241 101L195 44Q146-17 139-17L137-16Q136-15 136-13Q136-2 217 101Q151 99 118 99Q91 66 65 32Q19-24 11-24L8-23Q9-9 93 99Q28 99 28 105Q28 112 102 112Q118 133 150 175Q76 175 76 181Q76 186 93 188Q105 189 129 188Q159 187 159 187Q179 214 198 240Q231 281 247 281Q256 281 258 276Q258 273 188 187Q230 187 280 185Q302 215 323 244Q358 288 375 288Q385 288 387 283M274 176Q261 175 180 175L128 111Q212 111 225 110L274 176Z"  horiz-adv-x="356" vert-adv-y="1000"  />

      
      <glyph glyph-name="uni24" unicode="&#x24;" d="M288 247Q288 211 263 211Q244 211 244 228Q244 236 252 246.50Q260 257 260 261Q260 267 248 272L182 172Q196 129 196 112Q196 75 164.50 47Q133 19 95 19Q87 19 80 20Q51-29 43-28L42-28L40-23Q56 7 67 21Q24 32 24 66Q24 106 54 106Q76 106 76 88Q76 76 66.50 66Q57 56 57 49Q57 36 74 31L148 144Q140 161 140 191Q140 231 168 255.50Q196 280 237 281Q266 321 272 321L273 321Q274 319 274 318Q274 311 253 280Q288 272 288 247M233 273Q207 273 189.50 255.50Q172 238 172 212Q172 198 176 187L233 273M162 92Q162 114 154 130L86 29Q90 28 93 28Q120 28 141 46.50Q162 65 162 92Z"  horiz-adv-x="245" vert-adv-y="1000"  />

      
      <glyph glyph-name="uni25" unicode="&#x25;" d="M365 118Q365 77 322 35.50Q279-6 239-6Q204-6 204 26Q204 64 246 103.50Q288 143 326 144L331 142Q325 139 315 133Q292 119 264 81Q234 40 234 16Q234 3 249 3Q272 3 309 54Q343 102 343 126Q343 137 334 142L339 144Q365 144 365 118M378 298Q378 294 301 215Q257 169 213 124Q165 71 70-34Q62-43 56-43Q53-43 53-40Q53-32 169 99Q260 200 306 250L306 251Q273 231 240 231Q224 231 204 237Q206 230 206 224Q206 187 162 144.50Q118 102 81 102Q45 102 45 133Q45 176 86 212Q121 242 167 253L171 251Q170 250 166 248Q141 237 108 193Q75 149 75 124Q75 112 90 112Q113 112 149 163Q183 211 183 236Q183 240 181 245L175 251L180 253Q192 253 197 247Q213 238 234 238Q275 238 319.50 269Q364 300 370 300Q378 300 378 298Z"  horiz-adv-x="392" vert-adv-y="1000"  />

      
      <glyph glyph-name="uni26" unicode="&#x26;" d="M547 267Q547 253 537 238.50Q527 224 513 224Q496 224 496 243Q496 247 497.50 253Q499 259 499 262Q499 277 480 277Q449 277 363 201Q344 184 253 95Q297 35 297-17Q297-82 245.50-128Q194-174 129-174Q109-174 89-164Q65-152 65-133Q65-131 67-129Q83-162 129-162Q181-162 216.50-123Q252-84 252-31Q252 19 226 71Q132-5 71-5Q34-5 34 26Q34 92 184 160Q178 180 178 203Q178 235 200.50 264Q223 293 255 293Q283 293 283 262Q283 218 210 167Q228 132 247 104Q357 213 368 222Q456 299 507 299Q547 299 547 267M272 256Q272 277 252 277Q231 277 217 251.50Q203 226 203 203Q203 189 208 175Q272 221 272 256M220 81Q197 120 187 152Q138 118 123 105Q81 69 81 41Q81 22 106 22Q146 22 220 81Z"  horiz-adv-x="452" vert-adv-y="1000"  />

      
      <glyph glyph-name="uni27" unicode="&#x27;" d="M204 331Q204 323 159 287Q121 257 104 246L104 249Q104 253 148 321Q160 340 189 340Q204 340 204 331Z"  horiz-adv-x="109" vert-adv-y="1000"  />

      
      <glyph glyph-name="uni28" unicode="&#x28;" d="M491 461Q312 401 195 251Q74 96 74-89L72-92L71-92Q62-86 62-13Q62 155 192 297Q320 436 488 463L491 461Z"  horiz-adv-x="239" vert-adv-y="1000"  />

      
      <glyph glyph-name="uni29" unicode="&#x29;" d="M281 364Q281 248 212 138Q147 35 43-31Q-47-88-98-88Q-104-88-107-85L-107-84L-104-83Q-81-78-37-55Q86 11 172 139Q260 272 264 408Q264 418 264 433Q263 451 263 458Q263 464 264 466Q272 460 277 418Q281 386 281 364Z"  horiz-adv-x="239" vert-adv-y="1000"  />

      
      <glyph glyph-name="uni2a" unicode="&#x2a;" d="M302 339Q285 330 228 337Q250 289 250 278Q250 275 248 274Q243 276 228 297Q213 318 207 329L169 294Q157 282 139 270L137 271Q141 286 189 340Q172 343 156 347Q135 351 128 359Q130 364 144 364Q169 364 190 361Q169 403 169 416Q168 417 168 419Q168 424 173 424Q182 424 213 367Q270 424 281 424Q283 424 283 421Q283 410 234 356Q302 347 302 339Z"  horiz-adv-x="231" vert-adv-y="1000"  />

      
      <glyph glyph-name="uni2b" unicode="&#x2b;" d="M345 126Q342 120 278 118Q228 117 202 118L144 50Q92-11 84-11L83-11Q83-3 172 117Q158 117 130 117Q103 116 89 116Q44 116 44 123Q44 140 65 139L185 135Q207 164 250 222Q269 250 288 250Q303 250 303 245Q303 237 216 134Q298 131 329 131Q345 131 345 126Z"  horiz-adv-x="356" vert-adv-y="1000"  />

      
      <glyph glyph-name="uni2c" unicode="&#x2c;" d="M78 34Q78 21 39-13.50Q0-48-17-55Q-21-56-30-60Q-29-55-2-25Q20 0 17 23Q25 44 63 44Q78 44 78 34Z"  horiz-adv-x="126" vert-adv-y="1000"  />

      
      <glyph glyph-name="uni2d" unicode="&#x2d;" d="M195 65L193 60L189 63Q179 79 149 79Q136 79 111.50 74.50Q87 70 74 70Q41 70 38 86L39 89L41 89Q51 84 59 84Q76 84 105 100.50Q134 117 151 117Q196 117 195 65Z"  horiz-adv-x="245" vert-adv-y="1000"  />

      
      <glyph glyph-name="uni2010" unicode="&#x2010;" d="M195 65L193 60L189 63Q179 79 149 79Q136 79 111.50 74.50Q87 70 74 70Q41 70 38 86L39 89L41 89Q51 84 59 84Q76 84 105 100.50Q134 117 151 117Q196 117 195 65Z"  horiz-adv-x="245" vert-adv-y="1000"  />

      
      <glyph glyph-name="uni2e" unicode="&#x2e;" d="M76 33Q76 19 56.50 5Q37-9 22-9Q18-5 18 6Q18 44 61 44Q76 44 76 33Z"  horiz-adv-x="126" vert-adv-y="1000"  />

      
      <glyph glyph-name="uni2f" unicode="&#x2f;" d="M383 374Q371 355 178 149Q116 83 55 16Q26-16-33-79Q-36-83-45-87L-48-85L-48-83Q-48-83-47-79Q-25-51 160 161Q214 224 321 350Q347 380 372 380Q383 380 383 374Z"  horiz-adv-x="239" vert-adv-y="1000"  />

      
      <glyph glyph-name="uni30" unicode="&#x30;" d="M283 217Q283 156 204 70Q131-9 64-9Q8-9 8 46Q8 113 80 188.50Q152 264 219 264Q225 264 227 261Q226 261 221 260Q206 258 165 216Q48 96 48 25Q48 2 71 2Q115 2 184 96Q251 187 251 234Q251 251 233 261Q237 263 243 263Q260 263 271.50 249Q283 235 283 217Z"  horiz-adv-x="266" vert-adv-y="1000"  />

      
      <glyph glyph-name="uni31" unicode="&#x31;" d="M245 261Q240 252 233 244Q158 155 76 39Q43-8-7-8Q-12-8-12-4Q-12 8 73.50 108Q159 208 178 222L178 223Q109 171 68 171Q68 171 64 172L64 175Q83 180 160 224Q232 266 240 266Q245 266 245 261Z"  horiz-adv-x="187" vert-adv-y="1000"  />

      
      <glyph glyph-name="uni32" unicode="&#x32;" d="M264 223Q264 128 32 40L32 39Q44 43 54 43Q68 43 92.50 35.50Q117 28 129 28Q156 28 179 48Q207 71 207 71L209 68Q203 48 166 21Q129-6 106-6Q89-6 57.50 5.50Q26 17 9 17Q-6 17-20 9Q-42-5-45-6L-47 0Q-30 17 8 36Q70 67 130 112Q214 177 214 221Q214 247 187 247Q153 247 119 222Q82 195 82 162Q82 147 92 144Q95 143 113 143Q115 143 116 142Q116 132 91 132Q62 132 62 156Q62 196 117 233Q167 266 210 266Q264 266 264 223Z"  horiz-adv-x="249" vert-adv-y="1000"  />

      
      <glyph glyph-name="uni33" unicode="&#x33;" d="M269 235Q269 187 161 149L161 148Q211 148 211 105Q211 58 150 22Q97-9 46-9Q-21-9-21 32Q-21 81 30 81Q54 81 54 65Q54 51 35 38Q16 25 16 14Q16 0 45 0Q84 0 124.50 40.50Q165 81 165 121Q165 139 152 139Q138 139 112 127Q111 128 111 129Q111 134 140 148Q177 165 193 178Q221 201 221 229Q221 248 197 248Q165 248 141 227Q117 206 117 175L120 171L119 167L117 167Q105 167 105 190Q105 205 123 224Q162 266 228 266Q269 266 269 235Z"  horiz-adv-x="252" vert-adv-y="1000"  />

      
      <glyph glyph-name="uni34" unicode="&#x34;" d="M326 265L320 256Q303 234 268 190Q220 127 167 52Q172 51 184 51Q221 51 221 39Q220 38 220 37L216 35Q207 35 188.50 37Q170 39 160 39Q115-22 59-89Q40-99 17-99Q13-99 11-96L11-95Q11-83 104 39Q55 39 26 36Q-32 30-26 30Q-28 30-28 33Q-28 53 201 202Q228 221 255 239Q299 267 319 267Q324 267 326 265M258 221L256 223Q129 151 6 48L6 47Q41 52 114 52Q148 96 183 139Q224 190 258 221Z"  horiz-adv-x="273" vert-adv-y="1000"  />

      
      <glyph glyph-name="uni35" unicode="&#x35;" d="M320 251Q320 247 304 234Q281 216 239 216Q208 216 183 231Q149 186 109 150L110 150Q129 160 159 160Q217 160 217 115Q217 58 157 22Q105-9 45-9Q-19-9-19 29Q-19 79 25 79Q47 79 47 57Q47 52 33 36Q19 20 19 13Q19 0 45 0Q93 0 131.50 38Q170 76 170 124Q170 149 145 149Q123 149 102 136Q81 123 79 123Q74 123 74 128Q74 132 87 143Q151 195 202 266Q207 273 214 273L218 271Q233 244 287 244Q295 244 305 249.50Q315 255 318 255Q320 254 320 251Z"  horiz-adv-x="258" vert-adv-y="1000"  />

      
      <glyph glyph-name="uni36" unicode="&#x36;" d="M403 284Q403 278 401 275Q388 287 376 299Q364 308 341 308Q260 308 136 175Q50 83 50 28Q50-1 75-1Q108-1 153.50 56Q199 113 199 147Q199 164 182 164Q169 164 155 156Q133 144 130 143L128 145Q130 157 151 167Q172 177 186 177Q235 177 235 127Q235 75 182.50 32.50Q130-10 76-10Q19-10 19 44Q19 140 132 232Q241 320 340 320Q359 320 379 311Q403 300 403 284Z"  horiz-adv-x="261" vert-adv-y="1000"  />

      
      <glyph glyph-name="uni37" unicode="&#x37;" d="M287 249Q287 245 276 244Q132 110 23-20Q-29-36-51-36Q-54-36-57-35Q-59-25 44 65Q122 135 160 166Q214 209 256 238L256 239Q195 213 137 213Q90 213 90 239Q90 256 106 267Q122 278 140 278L140 277Q140 275 136.50 269Q133 263 133 260Q133 239 191 239Q209 239 226 241Q233 241 254.50 247Q276 253 281 253Q287 253 287 249Z"  horiz-adv-x="215" vert-adv-y="1000"  />

      
      <glyph glyph-name="uni38" unicode="&#x38;" d="M309 273Q309 238 270 208Q236 182 198 175Q201 179 213 187Q270 226 270 272Q270 304 238 304Q211 304 193 284Q175 264 175 236Q175 214 190.50 173Q206 132 206 109Q206 62 162.50 26.50Q119-9 71-9Q4-9 4 40Q4 82 41 115Q72 143 117 157Q123 163 136 163L140 161Q118 145 95 129Q51 88 51 40Q51 6 87 6Q120 6 142.50 32.50Q165 59 165 93Q165 114 151 152.50Q137 191 137 213Q137 254 174.50 286.50Q212 319 254 319Q309 319 309 273Z"  horiz-adv-x="245" vert-adv-y="1000"  />

      
      <glyph glyph-name="uni39" unicode="&#x39;" d="M270 205Q270 151 214 77.50Q158 4 82-46Q-6-104-84-104Q-103-104-122-95Q-144-84-144-67Q-144-62-141-60Q-135-68-128-77Q-113-92-85-92Q-19-92 59-26Q120 24 170 96Q239 195 239 234Q239 255 216 255Q183 255 139.50 203Q96 151 96 117Q96 95 119 95Q133 95 150.50 107.50Q168 120 173 121Q174 120 174 120Q174 109 147 96Q120 83 107 83Q63 83 63 132Q63 184 113 226Q162 265 215 265Q270 265 270 205Z"  horiz-adv-x="267" vert-adv-y="1000"  />

      
      <glyph glyph-name="uni3a" unicode="&#x3a;" d="M125 132Q125 118 105.50 104Q86 90 71 90Q67 94 67 105Q67 143 109 143Q125 143 125 132M77 33Q77 19 57.50 5Q38-9 23-9Q19-5 19 6Q19 44 61 44Q77 44 77 33Z"  horiz-adv-x="163" vert-adv-y="1000"  />

      
      <glyph glyph-name="uni3b" unicode="&#x3b;" d="M125 132Q125 118 105.50 104Q86 90 71 90Q67 94 67 105Q67 143 108 143Q125 143 125 132M79 34Q79 21 40-13.50Q1-48-16-55Q-20-56-29-60Q-28-55-1-25Q21 0 18 23Q26 44 64 44Q79 44 79 34Z"  horiz-adv-x="163" vert-adv-y="1000"  />

      
      <glyph glyph-name="uni3c" unicode="&#x3c;" d="M309 229Q308 227 305 225Q263 202 195 174Q140 150 84 127L224 40Q232 35 232 34Q232 28 228 28Q227 28 226 29Q221 30 145 69L52 117Q39 124 39 130Q39 134 62 143L140 172Q301 232 305 232Q308 232 309 229Z"  horiz-adv-x="282" vert-adv-y="1000"  />

      
      <glyph glyph-name="uni3d" unicode="&#x3d;" d="M343 160Q336 149 247 149Q224 149 178.50 150Q133 151 110 151Q59 151 85 150Q66 151 66 159Q66 175 90 175Q186 175 327 166Q343 165 343 160M306 96Q306 92 291 91Q203 87 43 87Q30 87 30 97Q30 112 53 111L290 103Q306 102 306 96Z"  horiz-adv-x="331" vert-adv-y="1000"  />

      
      <glyph glyph-name="uni3e" unicode="&#x3e;" d="M265 129Q265 125 242 116Q14 28-1 28Q-2 28-4 29Q-5 33 61 64Q114 86 220 132Q184 155 113 199Q73 221 74 227L74 228Q75 230 78 230Q88 230 253 142Q265 136 265 129Z"  horiz-adv-x="282" vert-adv-y="1000"  />

      
      <glyph glyph-name="uni3f" unicode="&#x3f;" d="M309 294Q309 247 251 206Q234 193 154 151Q97 121 90 102Q79 72 71 72Q68 72 68 76Q68 110 149 167Q239 230 257 275Q261 284 261 292Q261 318 230 318Q196 318 160.50 289Q125 260 125 227Q125 216 136 204Q134 202 131 202Q107 202 107 228Q107 268 165 304Q217 337 261 337Q309 337 309 294M84 33Q84 19 64.50 5Q45-9 30-9Q26-5 26 10Q26 44 67 44Q84 44 84 33Z"  horiz-adv-x="239" vert-adv-y="1000"  />

      
      <glyph glyph-name="uni40" unicode="&#x40;" d="M423 186Q423 157 403 130Q407 121 407 111Q407 53 345 18Q293-12 231-12Q175-12 136 12Q90 41 90 94Q90 171 169 221Q237 264 318 264L319 264Q360 264 389 246Q423 225 423 186M315 172Q315 184 301 184Q283 184 244 145.50Q205 107 205 90Q205 82 213 82Q230 82 272.50 119Q315 156 315 172M407 187Q407 221 378 240Q352 256 317 256Q250 256 187 203Q120 147 120 82Q120-3 234-3Q323-3 378 61Q399 86 399 110Q399 116 398 121Q387 101 359 83.50Q331 66 308 66Q271 66 271 91Q271 99 279 112L278 112Q233 67 201 67Q172 67 172 89Q172 126 219 161Q263 193 301 193Q328 193 324 169L325 169Q346 193 359 193Q371 193 371 188Q371 186 338.50 145.50Q306 105 306 91Q306 79 322 79Q356 79 381 116Q384 123 393 135Q388 143 383 154L384 155Q388 155 397 143Q407 166 407 187Z"  horiz-adv-x="495" vert-adv-y="1000"  />

      
      <glyph glyph-name="uni41" unicode="&#x41;" d="M2463 916Q2463 844 2365 767Q2299 715 2203 671Q2082 615 1924 587Q1862 483 1799 378Q1724 257 1656 180Q1570 82 1471 26Q1451 15 1439 12L1439 11Q1471 9 1525 9Q1587 9 1628 32Q1641 39 1712 95L1714 94L1715 92Q1713 87 1708 82Q1614-18 1502-18Q1487-18 1458.50-11.50Q1430-5 1416-5Q1410-5 1383-9.50Q1356-14 1342-14Q1299-14 1299 7Q1299 19 1334 19Q1348 19 1376.50 16.50Q1405 14 1419 14Q1518 56 1627 207Q1660 253 1778 450Q1809 501 1859 577Q1769 566 1714 566Q1608 456 1501 349Q1644 312 1655 264L1655 263Q1627 295 1486 331Q1274 119 1078 21Q851-94 581-94Q523-94 466-85Q470-252 638-342Q773-413 957-413Q1146-413 1285-343Q1428-270 1428-178Q1428-138 1406-113Q1402-110 1397-102Q1398-101 1400-101Q1418-101 1435-132.50Q1452-164 1452-185Q1452-280 1299-353Q1150-424 957-424Q759-424 626-353Q457-263 456-83Q310-58 223 18Q122 105 122 244Q122 341 181 431Q234 512 323 570Q517 697 761 697Q913 697 1030 648Q1186 582 1186 452Q1186 418 1175 383Q1180 383 1194 384Q1206 384 1214 384Q1345 384 1452 362Q1497 404 1659 566Q1497 570 1378 619Q1211 686 1211 820Q1211 911 1291 966Q1362 1014 1457 1014Q1564 1014 1620 963Q1656 930 1656 902Q1656 891 1652 891Q1643 948 1579 977Q1527 1001 1462 1001Q1372 1001 1307 955Q1235 904 1235 817Q1235 688 1397 624Q1511 579 1667 575Q2072 998 2348 998Q2463 998 2463 916M2451 916Q2451 953 2418 972Q2392 988 2352 988Q2186 988 2001 846Q1895 765 1720 576Q1787 578 1864 590Q1959 730 2049 823Q2188 966 2290 966Q2334 966 2328 954L2324 951L2294 957Q2217 957 2134 876Q2086 829 2017 730Q1959 646 1931 601Q2089 636 2197 689Q2451 813 2451 916M1153 363Q992 356 849 311Q678 259 580 166L580 165Q635 154 685 154Q820 154 948 203Q1101 262 1153 363M1436 342Q1329 365 1196 365Q1183 365 1169 364Q1122 251 974 186Q846 129 708 129Q628 129 566 150Q471 57 467-67Q521-77 583-77Q826-77 1051 45Q1231 142 1436 342M1176 452Q1176 569 1015 621Q907 656 760 656Q544 656 358 559Q133 441 133 245Q133 113 232 29Q316-42 456-67Q460 53 552 154Q418 203 418 293Q418 303 421 320Q425 341 430 341Q433 341 435 340Q434 336 430 317Q427 302 427 295Q427 249 477 212Q515 185 568 169Q669 270 845 327Q993 375 1162 382Q1176 416 1176 452Z"  horiz-adv-x="1707" vert-adv-y="1000"  />

      
      <glyph glyph-name="uni42" unicode="&#x42;" d="M2727 795Q2727 670 2601 594Q2493 529 2358 529Q2273 529 2212 559Q2134 598 2134 675Q2134 730 2186 776Q2236 819 2292 819Q2302 819 2302 815Q2248 813 2202 770.50Q2156 728 2156 676Q2156 608 2227 570Q2284 540 2358 540Q2486 540 2584 601Q2698 672 2698 793Q2698 903 2585 963Q2493 1012 2373 1012Q2102 1012 1867 839Q1956 772 1956 669Q1956 578 1878 507Q1813 448 1715 417Q1772 363 1772 290Q1772 133 1588 20Q1666-27 1666-82Q1666-97 1660-98L1658-95Q1647-24 1578 14Q1465-52 1352-52Q1282-52 1282-13Q1282 24 1350 44Q1398 58 1448 58Q1508 58 1558 36Q1628 95 1670 169Q1719 253 1719 335Q1719 387 1696 411Q1665 401 1621 401Q1533 401 1533 436Q1533 469 1588 469Q1644 469 1702 429Q1784 463 1845 533Q1913 611 1913 693Q1913 773 1853 829Q1780 767 1651 615Q1537 479 1424 342Q1289 187 1172 93Q1192 36 1192-21Q1192-210 1046-356Q900-502 711-502Q533-502 438-391Q346-285 356-105Q249-73 188-8Q120 65 120 170Q120 335 271.50 447.50Q423 560 641 560Q681 560 725 553Q751 577 789 606Q1189 909 1595 909Q1753 909 1847 854Q2085 1023 2374 1023Q2505 1023 2603 975Q2727 913 2727 795M1685 422L1685 423Q1650 458 1591 458Q1545 458 1545 437Q1545 424 1576 416Q1598 411 1618 411Q1646 411 1685 422M1834 846Q1756 897 1595 897Q1404 897 1221 826Q1067 766 886 641Q808 587 762 548L762 547Q983 494 983 327Q983 290 971 259Q1102 227 1153 134Q1247 221 1377 375Q1554 585 1591 625Q1717 762 1834 846M1548 27L1548 28Q1501 46 1453 46Q1407 46 1370 36Q1315 21 1315-10Q1315-42 1370-42Q1459-42 1548 27M973 332Q973 414 892 466Q829 507 735 521Q524 332 430 121Q500 78 594 80L616 81L617 82Q649 170 739 219Q821 263 922 263Q941 263 959 261Q973 293 973 332M954 250Q936 252 916 252Q824 252 746 210Q658 164 628 84L629 83Q730 88 815 126Q916 172 954 250M1138 119Q1090 216 967 248Q928 155 823 105Q732 61 621 59Q616 44 616 14Q616 10 617.50 2.50Q619-5 619-8Q619-11 616-13Q607-14 607 21Q607 44 611 59Q499 60 424 108Q378 0 371-95Q453-119 561-119Q732-119 873-58Q1002-3 1138 119M697 526Q676 529 639 529Q435 529 286 428Q132 324 132 170Q132-21 358-91Q365 8 409 118Q385 136 366 164Q345 196 345 223Q345 228 349 229Q362 171 414 131Q502 346 697 526M1169-14Q1169 31 1154 80Q1015-29 877-80Q733-132 560-132Q460-132 370-108Q369-116 369-141Q369-299 462-395Q555-491 713-491Q894-491 1033-342Q1169-196 1169-14Z"  horiz-adv-x="1746" vert-adv-y="1000"  />

      
      <glyph glyph-name="uni43" unicode="&#x43;" d="M1358 848Q1358 741 1241 662Q1136 591 1023 591Q928 591 896 642Q814 583 697 552Q591 524 480 524Q427 524 379 533Q198 303 198 118Q198 12 255-46Q312-104 418-104Q505-104 592-58Q671-17 735 53Q846 174 846 277Q846 332 812.50 361.50Q779 391 724 391Q635 391 546 312Q457 233 457 146Q457 56 537 56Q590 56 623 87Q624 85 624 83Q624 70 588 57Q556 45 539 45Q444 45 444 153Q444 252 536 329Q623 402 724 402Q873 402 873 263Q873 112 719-6Q575-117 420-117Q296-117 225-61Q146 2 146 122Q146 320 323 551Q244 579 198 635Q147 695 147 775Q147 896 243 973Q332 1045 456 1045Q520 1045 578 1021Q649 990 662 938Q665 933 665 928Q665 923 662 920Q659 921 658 925Q641 980 575 1008Q523 1030 455 1030Q339 1030 253 964Q160 892 160 778Q160 628 339 571Q479 738 705 858Q944 985 1149 985Q1232 985 1287 959Q1358 923 1358 848M964 738Q964 751 952 751Q932 751 915 728.50Q898 706 898 685Q898 671 902 661Q964 706 964 738M1337 856Q1337 920 1279 951Q1233 975 1163 975Q885 975 604 753Q475 652 398 557Q440 551 484 551Q588 551 694 577Q812 605 890 655Q886 664 886 681Q886 708 907.50 734.50Q929 761 955 761Q974 761 974 738Q974 701 906 649Q929 614 993 614Q1108 614 1222.50 695Q1337 776 1337 856Z"  horiz-adv-x="908" vert-adv-y="1000"  />

      
      <glyph glyph-name="uni44" unicode="&#x44;" d="M2439 757Q2439 633 2342 555Q2252 483 2125 483Q2058 483 2011 514Q1956 550 1956 613Q1956 683 2016 728Q2020 731 2029 735L2032 733Q2030 729 2023 723Q1967 674 1967 613Q1967 558 2019 530Q2059 509 2120 509Q2236 509 2327 574Q2428 646 2428 757Q2428 854 2348 906Q2279 950 2177 950Q1917 950 1681 745Q1726 649 1726 530Q1726 384 1656 260Q1586 136 1461 56Q1298-48 984-48Q894-48 777-36Q771-36 732-30Q703-26 686-26Q681-26 623-37Q561-49 550-50Q419-67 264-67Q17-67 17-30Q17 18 295 18Q402 18 606-3Q696-13 691-13Q695-13 730-4Q865 31 972 106Q1091 189 1253 372Q1489 639 1655 764Q1534 998 1159 998Q994 998 840 941Q670 879 569 767Q455 641 455 496Q455 387 523 322.50Q591 258 700 258Q857 258 987.50 363Q1118 468 1118 594Q1118 664 1073 706.50Q1028 749 958 749Q864 749 789 685Q710 617 710 525Q710 521 711.50 516Q713 511 713 508Q713 505 710 505Q701 505 701 533Q701 628 783 697Q862 763 958 763Q1044 763 1093.50 712.50Q1143 662 1143 577Q1143 437 1006 332Q878 233 734 233Q608 233 529 298Q444 368 444 491Q444 720 673 880Q882 1026 1158 1026Q1315 1026 1447 965Q1595 898 1666 772Q1923 961 2177 961Q2287 961 2357 915Q2439 861 2439 757M1700 560Q1700 652 1669 734Q1584 659 1482 545Q1394 445 1307 345Q1067 71 723-17L723-18Q873-33 980-33Q1048-33 1100-27Q1260-9 1399 79Q1538 167 1621 303Q1700 434 1700 560M647-22L647-21Q420 7 293 7Q151 7 82-8Q31-19 31-30Q31-35 48-38Q78-44 168-44L265-44Q513-44 647-22Z"  horiz-adv-x="1613" vert-adv-y="1000"  />

      
      <glyph glyph-name="uni45" unicode="&#x45;" d="M1238 775Q1238 696 1170 651Q1112 611 1029 611Q974 611 931 630Q879 654 865 700Q822 691 766 691Q683 691 604 705Q586 660 586 611Q586 589 590 570Q623 576 650 576Q759 576 759 525Q759 483 694 483Q592 483 553 551Q418 512 313 383Q204 251 204 114Q204 15 257.50-39.50Q311-94 409-94Q549-94 673 8Q730 55 769 115Q815 187 815 250Q815 309 772 344Q732 376 671 376Q578 376 506 320Q428 259 428 169Q428 101 499 101Q521 101 560 120L560 118Q560 118 559 114Q539 90 489 90Q451 90 426.50 115.50Q402 141 402 178Q402 266 497 330Q583 387 675 387Q748 387 796 347Q848 305 848 233Q848 154 791 79Q725-9 619-59Q517-107 404-107Q293-107 220-52Q140 9 140 117Q140 269 272 400Q390 519 548 561Q537 590 537 619Q537 669 558 714Q428 751 347 817Q244 900 244 1017Q244 1124 325 1191Q401 1254 510 1254Q606 1254 687 1200Q780 1140 780 1049Q780 1034 775 1033Q772 1034 772 1038Q772 1117 686 1183Q612 1240 508 1240Q407 1240 337 1186Q261 1127 261 1029Q261 919 364 837Q444 774 569 737Q624 832 744 886Q851 933 971 933Q1069 933 1141 902Q1238 860 1238 775M1227 774Q1227 855 1135 894Q1068 922 975 922Q865 922 768 872Q663 818 614 727L614 726Q702 706 802 706Q825 706 864 712L864 717Q863 756 892 785Q921 814 960 814Q1000 814 1000 782Q1000 728 876 702Q899 632 1028 632Q1102 632 1159 665Q1227 705 1227 774M989 783Q989 805 957 805Q923 805 898.50 778Q874 751 875 717L875 714Q989 738 989 783M747 526Q747 566 649 566Q623 566 593 560Q611 492 700 492Q747 492 747 526Z"  horiz-adv-x="872" vert-adv-y="1000"  />

      
      <glyph glyph-name="uni46" unicode="&#x46;" d="M2345 784Q2345 780 2343 777Q2290 918 1842 918Q1214 918 770 616Q888 602 970 555Q1078 493 1078 390Q1078 358 1067 327Q1186 307 1259 218Q1340 310 1391 382L1365 383Q1291 384 1244 350Q1240 347 1232 343L1230 346Q1230 350 1238 357Q1295 407 1409 407Q1750 898 2043 898Q2078 898 2076 889L2074 887Q1984 887 1918 859Q1796 807 1670 663Q1601 585 1477 405Q1488 405 1515 402Q1539 400 1553 400Q1617 400 1643 423Q1649 431 1660 445Q1693 485 1712 485Q1730 485 1730 469Q1730 463 1726 456Q1716 440 1695 422Q1659 393 1591 330Q1586 325 1581 325Q1578 325 1578 327Q1578 327 1584 335Q1603 360 1635 409L1635 410Q1598 380 1459 380Q1371 264 1286 181Q1337 97 1337-9Q1337-237 1162.50-404Q988-571 760-571Q559-571 441-457.50Q323-344 323-145Q323-117 325-83Q124-2 124 203Q124 377 304 501Q476 620 698 620Q722 620 748 618Q994 796 1266 879Q1529 959 1843 959Q2196 959 2308 855Q2345 820 2345 784M1067 392Q1067 491 942 542Q854 578 733 584Q506 400 415 207Q467 124 648 124Q689 219 793 278Q891 333 1000 333Q1026 333 1055 329Q1067 359 1067 392M1051 320Q1043 320 1025.50 321Q1008 322 999 322Q896 322 803 270Q704 214 661 125L661 124Q776 130 883 176Q1009 232 1051 320M1243 205Q1175 298 1063 318Q1020 214 889 154Q777 102 650 102Q639 71 639 45Q639 38 641 24.50Q643 11 643 4Q643 1 641 0Q630 8 630 44Q630 73 639 102Q574 102 513 124Q440 149 409 195Q350 69 338-72Q439-111 576-111Q942-111 1243 205M710 585L692 585Q478 585 311 476Q135 361 135 205Q135 12 326-67Q340 82 400 210Q387 231 387 260Q387 277 392 277Q396 259 407 222Q497 410 710 585M1307-1Q1307 89 1268 165Q964-126 577-126Q442-126 338-87Q337-101 337-141Q337-333 453-446Q569-559 762-559Q980-559 1145-389Q1307-220 1307-1Z"  horiz-adv-x="1399" vert-adv-y="1000"  />

      
      <glyph glyph-name="uni47" unicode="&#x47;" d="M1321 844Q1321 790 1290 733Q1229 619 1072 518Q817 353 528 353Q400 353 294 396Q203 242 203 122Q203-35 365-35Q411-35 480-13Q549 9 582 36Q617 73 676 134Q804 260 849 260Q866 260 866 249Q866 236 850 216Q808 163 696 83Q677 72 644 47Q636 40 543-75Q415-233 299-391Q215-505 121-657Q-13-871-13-927Q-13-937-3-937Q12-937 60-876Q86-843 286.50-559Q487-275 704-36Q829 101 842 101Q845 101 845 100Q845 95 811 62Q758 10 647-119Q534-251 390-446Q268-613 145-781Q109-830 73-879Q14-953-10-953Q-47-953-47-909Q-47-825 153-519Q331-246 567 17L567 18Q469-46 365-46Q265-46 208 1Q146 53 146 151Q146 271 237 424Q175 460 138 523Q101 586 101 658Q101 842 293 976Q473 1102 714 1102Q956 1102 1029 963Q1081 973 1135 973Q1321 973 1321 844M1296 841Q1296 962 1142 962Q1096 962 1033 949Q1046 913 1046 875Q1046 728 916 630Q796 539 645 539Q589 539 596 551Q597 552 599 552Q607 552 622 550Q637 548 645 548Q776 548 902 649Q1034 756 1034 884Q1034 915 1023 946Q820 897 614.50 742.50Q409 588 301 406Q399 363 529 363Q699 363 878 433Q1061 505 1180 622Q1296 737 1296 841M1018 960Q944 1089 715 1089Q481 1089 316 965Q141 833 141 648Q141 507 246 436L247 436Q369 636 579 776Q781 912 1018 960M856 239Q856 248 846 248Q815 248 663 69L663 68Q710 102 769 150Q856 223 856 239Z"  horiz-adv-x="831" vert-adv-y="1000"  />

      
      <glyph glyph-name="uni48" unicode="&#x48;" d="M2931 923Q2931 825 2821 761Q2726 706 2620 706Q2586 706 2549 715Q2496 728 2493 751L2495 753Q2502 747 2517 736Q2544 717 2615 717Q2712 717 2802 770Q2906 832 2906 923Q2906 973 2864 999Q2830 1021 2776 1021Q2658 1021 2516 909Q2346 775 2163 490Q2055 322 1974 226Q1840 69 1725 27L1725 26Q1803 54 1851 54Q1910 54 1912 16Q1940 30 2019 92L2023 92L2024 89Q2021 79 1968 38Q1923 3 1901-11Q1866-33 1835-33Q1862-10 1862 11Q1862 36 1814 36Q1764 36 1707 8.50Q1650-19 1648-19Q1638-19 1638-10Q1638-4 1706 23Q1783 53 1887 191Q2018 377 2149 564Q2307 781 2456 898Q2622 1029 2775 1029Q2837 1029 2878 1007Q2931 980 2931 923M2212 953Q2212 945 2201.50 935.50Q2191 926 2169 913Q2143 899 2135 893Q2110 875 1947 660Q1883 574 1749 406Q1818 402 1876 386Q1967 360 1967 314Q1967 309 1965 304Q1937 345 1863 371Q1804 391 1740 396Q1643 277 1504 167Q1362 54 1227-10Q1289-130 1459-130Q1509-130 1542-112Q1545-110 1551-107Q1552-108 1552-109Q1552-122 1509-132Q1476-139 1456-139Q1282-139 1207-21Q940-146 616-146Q419-146 290-87Q116-7 116 167Q116 306 268 415Q453 547 734 547Q862 547 963 506Q1099 451 1099 342Q1099 216 959 151Q851 101 708 101Q629 101 560 126Q467 159 467 224Q467 241 477 263L477 262Q477 258 475 251.50Q473 245 473 241Q473 171 561 139Q622 117 709 117Q834 117 935 165Q1064 226 1064 336Q1064 442 941 496Q847 536 726 536Q460 536 296 404Q163 298 163 163Q163 2 319-74Q438-133 617-133Q916-133 1192 7Q1177 42 1177 79Q1177 225 1352 324Q1492 403 1682 407Q1775 519 1884 654.50Q1993 790 2067 859L2067 860Q1783 662 1678 605Q1434 471 1239 471Q1180 471 1141 497Q1097 528 1097 584Q1097 595 1101 595Q1104 582 1107 568Q1116 540 1141 523Q1175 499 1240 499Q1351 499 1485 540Q1590 572 1703 635Q1776 676 1906 762L2035 847Q2055 859 2090 883Q2180 960 2202 960Q2212 960 2212 953M1673 395L1673 396Q1498 390 1371 313Q1208 214 1208 73Q1208 44 1214 20Q1461 150 1673 395Z"  horiz-adv-x="2020" vert-adv-y="1000"  />

      
      <glyph glyph-name="uni49" unicode="&#x49;" d="M2393 1048Q2393 1033 2355 1018Q2328 1009 2278 985Q2196 936 2019 711Q1901 552 1782 394Q1585 133 1371 10Q1131-128 815-128Q622-128 507-58Q369-52 268-10Q124 49 124 162Q124 267 248 322Q342 364 463 364Q542 456 693 519Q836 580 964 584Q999 585 1064 584Q1065 618 1085 646Q1094 658 1096 658L1099 658Q1091 642 1082.50 626Q1074 610 1074 583Q1228 571 1304 504Q1436 521 1580 588Q1687 638 1833 734Q1953 814 2074 894Q2153 944 2219 979Q2242 989 2285 1011Q2309 1026 2333 1040Q2364 1057 2385 1057Q2393 1057 2393 1048M2273 995L2273 996Q2189 957 2072 878Q1955 799 1838 720Q1695 624 1588 571Q1448 501 1324 479Q1359 435 1359 375Q1359 215 1166 90.50Q973-34 686-55Q645-58 557-58L557-59Q667-115 831-115Q1075-115 1294 6Q1499 118 1656 321Q1743 435 1831 548Q1934 680 2014 769Q2161 932 2273 995M1277 501Q1209 558 1075 570Q1083 533 1130 514Q1168 498 1212 498Q1257 498 1277 501M1334 376Q1334 434 1299 475Q1264 470 1210 470Q1154 470 1116 493Q1071 520 1065 571Q1030 574 1005 574Q867 574 730 520Q584 462 500 363Q634 357 688 289Q694 281 702 265L699 260Q698 261 688 276Q641 346 494 353Q426 271 426 162Q426 28 541-45Q579-47 603-47L613-47Q923-45 1142 93Q1334 214 1334 376M493-44L493-43Q384 33 384 162Q384 269 455 354Q341 352 262 313Q158 262 158 161Q158 63 283 6Q374-35 493-44Z"  horiz-adv-x="1615" vert-adv-y="1000"  />

      
      <glyph glyph-name="uni4a" unicode="&#x4a;" d="M2769 987Q2769 981 2744 975Q2729 971 2713 968Q2632 945 2552 894Q2438 821 2306 649Q2348 613 2348 555Q2348 450 2230 357Q2127 275 2013 253Q1796-16 1586-152Q1325-320 1029-320Q824-320 704-248Q610-271 499-271Q359-271 255-226Q117-166 117-44Q117-28 119-13Q128 54 195.50 111.50Q263 169 329 169Q342 169 348 166Q346 165 333 163Q255 152 202.50 94Q150 36 150-42Q150-158 271-216Q364-260 494-260Q603-260 691-239Q566-158 566-20Q566 171 774 288Q948 385 1156 385Q1288 385 1380 341Q1501 284 1501 166Q1501 48 1372-32Q1259-102 1134-102Q1074-102 1032-79Q937-186 732-240Q843-307 1032-307Q1288-307 1545-131Q1751 9 1943 251Q1863 259 1814 305Q1762 355 1762 433Q1762 575 1912 717Q2024 823 2189 904Q2285 951 2414.50 982.50Q2544 1014 2648 1014Q2769 1014 2769 987M2756 989Q2745 1005 2656 1005Q2454 1005 2244 914Q2028 820 1903 671Q1792 539 1792 423Q1792 274 1951 261Q1979 296 2106 462Q2201 586 2266 660Q2239 674 2201 674Q2144 674 2102 647Q2094 640 2078 627Q2076 629 2076 631Q2076 638 2098 654Q2138 683 2205 683Q2249 683 2274 669Q2521 951 2756 989M2322 565Q2322 607 2296 636L2295 636Q2207 511 2023 264Q2166 299 2258 415Q2322 496 2322 565M1472 164Q1472 277 1360 332Q1273 375 1148 375Q949 375 791 279Q605 166 605-20Q605-155 719-231Q926-180 1020-73Q967-36 967 21Q967 53 984.50 78.50Q1002 104 1032 104Q1079 104 1079 41Q1079-18 1038-69Q1080-92 1138-92Q1257-92 1358-25Q1472 51 1472 164M1066 32Q1066 91 1032 91Q981 91 981 22Q981-28 1029-63L1030-63Q1066-13 1066 32Z"  horiz-adv-x="1995" vert-adv-y="1000"  />

      
      <glyph glyph-name="uni4b" unicode="&#x4b;" d="M2564 964Q2564 949 2559 949Q2545 1030 2448 1030Q2365 1030 2279 932Q2167 792 2056 653Q1902 471 1796 438Q1819 409 1819 373Q1819 323 1753.50 222Q1688 121 1688 63Q1688 12 1726-8Q1777 88 1858 165Q1958 260 2044 260Q2113 260 2113 208Q2113 130 1999 44Q1893-36 1788-36Q1760-36 1733-28Q1690-106 1687-161Q1688-166 1683-173Q1678-168 1678-161Q1678-106 1719-23Q1636 9 1636 87Q1636 140 1675 208Q1682 220 1745 316Q1783 373 1783 400Q1783 416 1774 433Q1751 428 1718 428Q1658 428 1658 456Q1658 482 1703 482Q1751 482 1788 449Q1845 471 1906 542Q1958 603 2088 768Q2180 885 2246 943Q2356 1041 2450 1041Q2489 1041 2523 1022Q2564 1000 2564 964M1997 943Q1997 929 1963 912Q1940 902 1918.50 890.50Q1897 879 1826 775Q1771 693 1715 610Q1650 514 1599 449Q1389 178 1181 52Q938-96 629-96Q434-96 294-14Q126 85 126 268Q126 444 304 572Q491 706 732 706L746 706Q748 823 857 907Q977 1000 1187 1000Q1307 1000 1407 955Q1535 898 1535 793Q1535 778 1529 781L1526 785Q1526 887 1400 936Q1307 973 1186 973Q1024 973 909 920Q756 850 756 706Q896 702 1009 657Q1157 598 1183 488Q1461 513 1713 742Q1793 815 1799 819Q1863 875 1890 884Q1961 948 1990 948Q1997 948 1997 943M1767 443L1767 444Q1745 470 1705 470Q1670 470 1670 456Q1670 438 1720 438Q1749 438 1767 443M2097 206Q2097 253 2046 253Q1970 253 1869 154Q1789 74 1740-13L1740-14Q1758-22 1794-22Q1890-22 1990 51Q2097 129 2097 206M1169 487Q1143 583 997 630Q895 662 762 666L761 665Q788 563 931 518Q1031 487 1169 487M1875 866L1875 867Q1862 862 1834 838Q1776 785 1719 732Q1650 669 1598 634Q1375 483 1186 463Q1186 304 1020 209Q880 128 708 128Q608 128 526 162Q418 206 418 292Q418 324 428 323Q429 322 429 321Q429 318 428 311Q427 304 427 301Q427 218 522 181Q589 154 687 154Q845 154 992 224Q1173 310 1173 450Q1173 456 1172 461Q1166 461 1153 460Q1140 460 1133 460Q1006 460 902 504Q771 560 748 666L726 666Q581 666 447 617Q296 563 212 464Q134 372 134 267Q134 94 301-2Q440-82 627-82Q907-82 1140 70Q1329 193 1528 449Q1611 556 1694 664Q1792 786 1875 866Z"  horiz-adv-x="2123" vert-adv-y="1000"  />

      
      <glyph glyph-name="uni4c" unicode="&#x4c;" d="M2334 855Q2334 719 2174 614Q2029 519 1885 519Q1810 519 1772 545Q1726 487 1627 453Q1541 423 1455 423Q1413 423 1367 431Q1130 162 885 45Q1080-23 1209-23Q1352-23 1458 49Q1489 73 1530 99Q1531 98 1531 96Q1531 93 1477 47Q1348-64 1202-64Q1123-64 1025-34Q982-20 856 29Q639-67 384-67Q293-67 221-46Q114-14 114 54Q114 120 202 147Q260 166 344 166Q466 166 605 132Q699 110 858 55Q1076 169 1313 445Q1128 511 1128 679Q1128 808 1257 904Q1386 1000 1564 1000Q1723 1000 1798 915Q1964 1009 2133 1009Q2217 1009 2270 974Q2334 934 2334 855M2323 853Q2323 928 2263 966Q2213 998 2134 998Q1971 998 1812 897Q1835 861 1835 818Q1835 718 1723 652Q1627 596 1520 596Q1506 596 1501 597Q1440 519 1385 456Q1423 452 1464 452Q1543 452 1624 475Q1720 503 1764 551Q1745 567 1745 594Q1745 628 1770 628Q1793 628 1793 598Q1793 577 1778 553Q1808 535 1860 535Q2000 535 2151 623Q2323 722 2323 853M1825 819Q1825 861 1802 890Q1663 797 1511 610L1522 610Q1627 610 1718 662Q1825 722 1825 819M1783 597Q1783 621 1771 621Q1754 621 1754 600Q1754 575 1771 560Q1783 576 1783 597M1787 911Q1717 977 1563 977Q1408 977 1285 907Q1138 823 1138 679Q1138 522 1329 469Q1397 552 1444 607Q1336 634 1336 714Q1336 730 1344 746Q1354 766 1368 766Q1370 765 1371 765Q1346 744 1346 715Q1346 639 1453 619Q1618 811 1787 911M832 42Q545 157 345 157Q132 157 132 62Q132 0 233-31Q305-54 385-54Q630-54 832 42Z"  horiz-adv-x="1516" vert-adv-y="1000"  />

      
      <glyph glyph-name="uni4d" unicode="&#x4d;" d="M3002 854Q3002 740 2843 677Q2722 629 2587 629Q2474 629 2272 664Q2116 540 1979 387Q1786 172 1786 52Q1786 13 1809-13Q1832-39 1871-39Q1927-39 1972-11Q2033 27 2078 82Q2132 149 2132 209Q2132 265 2075 265Q2019 265 1956 200Q1899 141 1899 81Q1899 68 1893 68Q1890 68 1890 87Q1890 151 1948 213Q2006 275 2069 275Q2149 275 2149 197Q2149 100 2057 23Q1969-50 1870-50Q1815-50 1783-20Q1751 10 1751 64Q1751 284 2210 677Q2164 687 2140 691Q1963 545 1748 321Q1565 123 1381-74Q1353-104 1335-104Q1311-104 1311-77Q1311-36 1391 84Q1580 368 1961 728Q1917 735 1894 740Q1766 624 1650 510Q1441 304 1346 223Q1165 67 1002-12Q802-108 599-108Q407-108 283-42Q126 43 126 219Q126 388 287 515Q475 663 747 677Q806 770 950 814Q1062 848 1200 848Q1420 848 1887 754Q2136 977 2189 977Q2220 977 2220 952Q2220 924 2137 836Q2081 781 2026 726L2135 705Q2280 822 2430 911Q2639 1035 2753 1035Q2840 1035 2863 977Q2922 973 2959 943Q3002 910 3002 854M2988 854Q2988 912 2941 941Q2901 966 2840 966Q2703 966 2542 870Q2447 814 2285 680Q2468 652 2607 652Q2734 652 2843 693Q2988 749 2988 854M2852 978Q2831 1018 2747 1018Q2636 1018 2436 900Q2292 815 2153 702Q2176 698 2222 691Q2384 822 2514 889Q2690 978 2852 978M2202 958Q2202 967 2192 967Q2144 967 1905 750Q1974 737 1972 737Q2029 788 2087 838Q2176 920 2202 958M2123 694Q2016 715 2016 715Q1606 319 1391 18Q1332-65 1331-87L1334-92Q1345-95 1374-64Q1451 22 1608 193Q1773 369 1857 452Q1998 593 2123 694M1877 745Q1486 820 1222 820Q884 820 767 678L778 678Q932 679 1046 627Q1195 559 1195 423Q1195 287 1034 189Q881 96 696 96Q600 96 519 134Q416 182 416 266Q416 276 419.50 293.50Q423 311 429 308L430 305Q425 271 425 275Q425 191 519 151Q588 122 685 122Q798 122 910 159Q1032 199 1108.50 270.50Q1185 342 1185 422Q1185 547 1052 603Q958 642 811 642Q780 642 748 640Q727 598 727 547Q727 463 792 411Q853 363 939 363Q947 363 962 367.50Q977 372 984 372L986 371Q954 354 933 354Q841 354 780 409Q716 466 716 556Q716 601 732 638Q481 625 297 489Q136 370 136 219Q136 59 292-16Q410-73 589-73Q852-73 1094 64Q1280 169 1508 392Q1736 615 1877 745Z"  horiz-adv-x="2164" vert-adv-y="1000"  />

      
      <glyph glyph-name="uni4e" unicode="&#x4e;" d="M3480 829Q3480 761 3440 701Q3371 598 3225 541Q3097 491 2957 491Q2853 491 2778 530Q2684 580 2684 675Q2684 747 2747 796Q2806 842 2880 842Q2910 842 2910 830Q2904 830 2890.50 832Q2877 834 2870 834Q2806 834 2751 786.50Q2696 739 2696 676Q2696 589 2801 548Q2875 520 2979 520Q3180 520 3322 607Q3469 697 3469 827Q3469 945 3332 1001Q3233 1041 3094 1041Q2962 1041 2854 1017Q2575 955 2260 696Q1999 482 1789 201Q1733 5 1666-46Q1646-61 1636-61Q1629-61 1629-53Q1629-26 1675 58Q1710 120 1742 166Q1760 246 1776 386Q1797 569 1803 610L1802 611Q1568 289 1291 95Q957-139 618-139Q427-139 293-64Q127 28 127 204Q127 302 182 393Q232 474 319 536Q504 668 747 668Q897 668 1016 614Q1170 544 1170 412Q1170 277 1020 180Q879 89 694 89Q596 89 511 127Q402 175 402 261Q402 271 406 284Q411 303 418 299Q418 294 415 278.50Q412 263 412 256Q412 224 444 189Q511 115 672 115Q859 115 1004 199Q1160 290 1160 412Q1160 530 1000 587Q886 628 741 628Q522 628 347 528Q138 409 138 206Q138 40 305-43Q435-107 620-107Q1014-107 1363 169Q1615 368 1806 634Q1821 739 1848 787Q1887 857 1973 877Q2036 949 2100 949Q2143 949 2143 925Q2143 911 2127 905Q2085 890 1986 872Q1918 796 1858 680Q1846 523 1838 453Q1822 327 1796 230L1797 229Q2058 577 2455 854Q2792 1089 3110 1089Q3256 1089 3356 1033Q3480 964 3480 829M2134 924Q2134 937 2109 937Q2053 937 1994 883L1994 882Q2035 889 2114 908Q2134 914 2134 924M1967 866L1966 866Q1963 866 1948 861Q1885 839 1868 783Q1865 772 1859 701L1860 701Q1906 796 1967 866M1737 139L1736 139Q1712 102 1680 45Q1639-30 1639-47Q1639-48 1640-48Q1664-47 1699 33Q1723 88 1737 139Z"  horiz-adv-x="1838" vert-adv-y="1000"  />

      
      <glyph glyph-name="uni4f" unicode="&#x4f;" d="M1691 784Q1691 558 1485 308Q1295 78 1069-20Q1067-28 1064-45Q1031-188 914-289Q793-393 649-393Q497-393 415-301Q338-213 338-59Q338 31 368 135L367 135Q262 169 195 240Q119 320 119 422Q119 582 251 671Q365 748 532 748Q642 748 715 701Q858 842 1037 935Q1242 1042 1417 1042Q1545 1042 1617 978Q1691 911 1691 784M1530 794Q1530 853 1495 883.50Q1460 914 1401 914Q1275 914 1091 758Q953 641 843 496Q784 419 739 321Q688 210 681 127L680 127Q872 147 1054.50 239.50Q1237 332 1367 475Q1432 546 1475 623Q1530 720 1530 794M1665 812Q1665 924 1593 981Q1528 1031 1413 1031Q1240 1031 1043 924Q874 833 732 691Q776 662 776 624Q776 620 774 617Q772 618 770 622Q752 656 721 679Q490 439 397 147L398 147Q503 122 598 122Q619 122 641 123L641 137Q640 172 650 219Q692 414 868 610Q1036 796 1229 883Q1324 926 1396 926Q1542 926 1542 789Q1542 683 1436 541Q1350 426 1243 341Q985 137 679 106Q679-57 857-57Q948-57 1056-4Q1059 18 1059 34Q1059 48 1052 71Q1045 94 1045 102Q1046 103 1048 103Q1060 103 1067 59Q1072 25 1071 4Q1279 114 1462 346Q1665 603 1665 812M703 690Q635 728 533 728Q374 728 263 658Q131 575 131 425Q131 327 207 252Q272 187 374 154L375 154Q416 295 507 441Q594 581 703 690M1051-28Q952-68 864-68Q663-68 642 102Q614 100 587 100Q498 100 392 128L391 128Q361 23 361-65Q361-211 430-294Q505-383 647-383Q795-383 909-277Q1015-177 1051-28Z"  horiz-adv-x="1414" vert-adv-y="1000"  />

      
      <glyph glyph-name="uni50" unicode="&#x50;" d="M2504 871Q2504 747 2378 662Q2265 585 2136 585Q2093 585 2092 598L2093 600Q2098 600 2115 597Q2129 594 2136 594Q2256 594 2363 673Q2478 759 2478 875Q2478 962 2394 1010Q2326 1048 2231 1048Q2027 1048 1838 906Q1907 853 1907 764Q1907 619 1757 514Q1621 418 1470 418Q1434 418 1398 429Q1228 222 1096 109Q1108 74 1108 34Q1108-151 944-296Q786-437 599-437Q448-437 359-350.50Q270-264 270-113Q270-88 273-62Q124 14 124 169Q124 292 220 403Q306 501 444 566Q575 627 695 633Q887 786 1110 878Q1355 978 1579 978Q1728 978 1821 919Q2035 1059 2234 1059Q2336 1059 2412 1017Q2504 965 2504 871M1863 786Q1863 850 1822 894Q1715 812 1600 680Q1566 641 1405 439Q1435 429 1475 429Q1571 429 1661 483Q1744 534 1801 618Q1863 710 1863 786M1807 909Q1721 967 1575 967Q1368 967 1133 866Q932 778 741 632L741 631Q837 627 906 586Q991 535 991 448Q991 349 898 261Q1021 242 1076 150Q1190 257 1348 455Q1296 493 1296 553Q1296 594 1317.50 633Q1339 672 1374 693Q1395 706 1403 706Q1404 705 1407 704Q1382 686 1357 667Q1308 620 1308 555Q1308 498 1355 464Q1578 751 1807 909M871 255Q867 256 850 256Q800 256 736 240Q650 220 650 187Q650 166 688 166Q780 166 871 255M1058 133Q1009 237 891 253Q848 214 795 187Q734 157 684 157Q631 157 631 184Q631 199 653 217Q712 264 876 264Q963 351 963 447Q963 529 886 578Q820 620 732 621Q560 484 447 324Q313 135 289-52Q385-102 518-102Q801-102 1058 133M685 621L685 622Q495 609 333 478Q156 336 156 154Q156 27 274-44Q298 141 418 325Q524 486 685 621M1078 37Q1078 63 1072 91Q818-113 514-113Q386-113 288-69Q286-92 286-115Q286-260 370.50-343Q455-426 600-426Q777-426 927.50-283Q1078-140 1078 37Z"  horiz-adv-x="1253" vert-adv-y="1000"  />

      
      <glyph glyph-name="uni51" unicode="&#x51;" d="M1526 807Q1526 683 1407 605Q1381 455 1289 306Q1206 172 1082 58Q892-117 609-201L609-202Q899-268 1104-268Q1374-268 1447-137Q1464-106 1465-83Q1468-87 1468-94Q1468-117 1457-141Q1418-227 1304-273Q1210-311 1100-311Q882-311 563-217Q429-250 277-250Q-11-250-11-184Q-11-135 153-135Q323-135 583-195Q845-120 1060 79Q1178 188 1263 315Q1360 461 1389 597Q1341 569 1308 569Q1302 569 1300 573Q1300 577 1309 577Q1342 578 1392 612Q1400 654 1400 691Q1400 839 1257 839Q1124 839 954 697Q852 612 776 512Q675 380 675 286Q675 201 762 201Q868 201 1020 357Q1093 432 1130 501Q1137 515 1152.50 542.50Q1168 570 1181 570Q1200 570 1200 548Q1200 469 1127 344Q988 108 769-8Q646-73 554-73Q446-73 387-20Q324 36 324 143Q324 258 388 396Q503 645 748 815Q1002 992 1268 992Q1526 992 1526 807M1502 805Q1502 899 1428 945Q1366 983 1267 983Q1162 983 1064 949Q794 855 565 574Q488 479 431 357Q366 217 366 114Q366-61 557-61Q719-61 913 113Q1089 271 1160 438Q1189 507 1189 544Q1189 563 1180 563Q1172 563 1158 536Q1149 518 1140 500Q1079 390 993 315Q851 192 758 192Q656 192 656 297Q656 366 705 457Q783 602 937 720Q1107 850 1256 850Q1413 850 1413 692Q1413 659 1409 623Q1502 695 1502 805M538-209L538-208Q318-144 145-144Q3-144 3-185Q3-238 252-238Q410-238 538-209Z"  horiz-adv-x="1234" vert-adv-y="1000"  />

      
      <glyph glyph-name="uni52" unicode="&#x52;" d="M2451 871Q2451 748 2325 662Q2212 586 2082 586Q2074 586 2059 589Q2039 593 2039 598Q2039 600 2040 601L2042 601Q2054 594 2082 594Q2202 594 2309 673Q2426 759 2426 875Q2426 963 2341 1010Q2272 1048 2177 1048Q1970 1048 1776 901Q1846 834 1846 746Q1846 689 1811 630Q1763 549 1660 502Q1571 460 1465 452L1465 451Q1549 430 1549 362Q1549 318 1512 261Q1477 212 1442 162Q1404 102 1404 50Q1404-23 1502-23Q1591-23 1682 53Q1773 129 1793 217Q1795 227 1795 236Q1795 292 1738 292Q1660 292 1591 221Q1527 155 1513 75Q1510 76 1510 87Q1510 159 1588 233Q1666 307 1739 307Q1820 307 1820 233Q1820 142 1702 52Q1591-33 1497-33Q1437-33 1400-9Q1357 19 1357 76Q1357 128 1398 192Q1436 244 1474 296Q1515 352 1515 386Q1515 432 1456 444Q1408 448 1361 452Q1206 258 1053 140Q1069 97 1069 56Q1069-10 1009-47Q958-79 888-79Q801-79 699-43Q546-87 319-87Q-7-87-7 14Q-7 67 68 93Q121 112 186 112Q310 112 450 71Q545 44 702-22Q864 34 1020 168Q961 260 901 351Q840 456 840 559Q840 740 999 869Q1173 1010 1444 1010Q1645 1010 1761 916Q1972 1059 2181 1059Q2283 1059 2359 1017Q2451 965 2451 871M1806 775Q1806 844 1763 893Q1662 813 1553 689Q1485 612 1367 461Q1388 458 1412 458Q1522 458 1617.50 510.50Q1713 563 1770 656Q1806 715 1806 775M1746 909Q1651 1000 1447 1000Q1177 1000 1014 861Q871 740 871 567Q871 472 925 364Q939 336 1033 182Q1148 284 1300 466L1300 467Q1248 486 1214 522Q1176 563 1176 613Q1176 685 1238 745Q1300 805 1370 805Q1378 805 1378 801Q1371 798 1362 796Q1291 781 1242 735Q1189 684 1189 615Q1189 522 1306 476Q1531 760 1746 909M1055 54Q1055 93 1039 131Q895 22 725-33Q816-69 889-69Q952-69 1000-40Q1055-5 1055 54M674-32Q554 13 434 57Q295 102 184 102Q122 102 73 86Q3 63 3 14Q3-76 333-76Q535-76 674-32Z"  horiz-adv-x="1812" vert-adv-y="1000"  />

      
      <glyph glyph-name="uni53" unicode="&#x53;" d="M2257 898Q2257 829 2137 746Q2056 690 1953 647Q1930 504 1757 387Q1625 299 1448 247Q1095-140 597-140Q413-140 288-78Q126 2 126 167Q126 314 246 426Q349 522 520 577Q671 626 813 626Q899 626 971 610Q1043 648 1142 672Q1141 680 1141 687Q1141 723 1169 759Q1226 832 1358 872Q1466 904 1580 904Q1770 904 1874 822Q2048 957 2172 957Q2257 957 2257 898M2234 894Q2234 948 2168 948Q2055 948 1898 802Q1923 777 1940 737Q1957 697 1954 664Q2070 716 2150 781Q2234 849 2234 894M1944 668Q1945 699 1929 736Q1913 773 1890 794Q1812 721 1701 578L1701 577Q1809 600 1944 660L1944 668M1864 815Q1814 853 1727 872Q1653 889 1577 887L1552 887Q1402 885 1275 822Q1152 761 1152 688Q1152 681 1153 674Q1233 694 1320 694Q1448 694 1498 649Q1506 642 1515 627L1512 623L1511 623Q1510 623 1509 625Q1499 643 1463 657Q1414 677 1319 677Q1239 677 1155 658Q1168 594 1268 566Q1336 547 1426 547Q1518 547 1626 564Q1753 724 1864 815M1943 643Q1792 583 1692 562Q1587 420 1581 411Q1516 325 1462 266L1462 265Q1624 315 1752 402Q1919 514 1943 643M1619 552Q1513 535 1426 535Q1168 535 1145 655Q1057 634 995 605Q1216 550 1216 408Q1216 304 1124 223L1159 222Q1271 221 1378 246Q1440 313 1619 552M1205 405Q1205 483 1119 533Q1058 569 964 585L963 585Q830 507 830 400Q830 315 925 268Q991 236 1094 226Q1205 303 1205 405M1366 230L1366 231Q1268 208 1170 208Q1140 208 1111 210Q1035 149 927 116Q827 85 722 85Q620 85 541 123Q440 171 440 263Q440 278 450 304Q461 336 472 330Q471 326 460 306Q452 291 452 269Q452 181 539 141Q603 111 703 111Q797 111 898 137Q1005 165 1078 213Q975 225 909 262Q819 313 819 401Q819 509 941 588Q877 597 816 597Q543 597 333 464Q138 340 138 172Q138 14 298-63Q421-123 598-123Q829-123 1021-32Q1200 54 1366 230Z"  horiz-adv-x="1442" vert-adv-y="1000"  />

      
      <glyph glyph-name="uni54" unicode="&#x54;" d="M2457 784Q2457 781 2454 777Q2402 916 1987 916Q1563 916 1237 795Q855 654 629 355Q539 236 493 119Q592 110 737 82Q780 191 890 261.50Q1000 332 1120 332Q1281 332 1371 217Q1421 272 1485 358Q1538 432 1592 505Q1887 897 2154 897Q2186 897 2188 889L2186 887Q2143 887 2131 886Q1996 875 1850 734Q1756 643 1641 479Q1515 298 1396 184Q1453 89 1447-29Q1550-14 1644 51Q1661 65 1694 90Q1694 90 1710 98Q1711 97 1711 96Q1711 93 1701 84Q1576-34 1445-59Q1422-273 1255-422Q1088-571 873-571Q672-571 553-458Q434-345 434-145L434-110Q327-102 250-79Q123-42 123 25Q123 82 222 108Q287 125 365 125Q453 125 479 119Q596 418 887 630Q1148 819 1490 900Q1734 958 1996 958Q2313 958 2419 855Q2457 818 2457 784M1420-3Q1420 99 1382 171Q1264 61 1122-5L1122-6Q1267-33 1394-33Q1398-33 1406-33Q1415-32 1419-32Q1420-17 1420-3M1361 204L1361 205Q1278 321 1120 321Q1005 321 905 250Q812 185 756 78Q867 53 1088 1Q1235 74 1361 204M1051-18L1051-17Q851 34 750 62Q715-14 711-96Q903-81 1051-18M1418-62Q1378-65 1365-65Q1238-65 1082-27Q923-93 711-111Q715-217 764-254Q770-258 782-267L780-268Q742-265 719-205Q703-163 699-111Q643-115 581-115Q511-115 449-111L449-142Q449-336 564.50-448.50Q680-561 875-561Q1080-561 1237-414Q1394-267 1418-62M729 67Q583 98 489 107Q455 9 448-98Q510-102 582-102Q642-102 698-98L698-89Q697-14 729 67M475 108Q458 113 342 113Q275 113 220 97Q138 74 138 24Q138-34 262-69Q337-90 437-98Q441-4 475 108Z"  horiz-adv-x="1696" vert-adv-y="1000"  />

      
      <glyph glyph-name="uni55" unicode="&#x55;" d="M1845 1023Q1845 1011 1835 999Q1817 977 1774 941Q1741 914 1708 887Q1613 805 1337 533Q990 191 990 59Q990-28 1088-36Q1140 208 1334 332Q1407 379 1467 379Q1539 379 1539 315Q1539 252 1488 178Q1447 119 1387 69Q1248-46 1098-46Q1090-91 1090-123Q1090-157 1095-172L1094-175Q1081-178 1081-111Q1081-83 1086-46Q1025-44 989-15Q950 18 950 77Q950 176 1082 337Q1160 433 1323 590Q1517 778 1687 918Q1721 946 1790 1000Q1818 1020 1818 1028Q1818 1033 1809 1033Q1758 1033 1511 816Q1323 650 1220 544Q1096 417 863 160Q776 64 703 14Q618-44 553-44Q482-44 482 28Q482 113 591 245Q681 355 815 496Q876 559 990 690Q1057 775 1057 835Q1057 901 995 936Q943 966 873 966Q665 966 470 850Q342 774 256 672Q148 546 148 423Q148 351 190 310.50Q232 270 304 270Q393 270 491 332Q569 381 634 457Q714 550 714 623Q714 669 684.50 695.50Q655 722 609 722Q578 722 549.50 708Q521 694 515 694Q514 709 556 721Q590 731 611 731Q661 731 693.50 701.50Q726 672 726 623Q726 496 587 376Q452 260 302 260Q227 260 181 305.50Q135 351 135 427Q135 523 199 626Q255 715 340 784Q580 977 865 977Q957 977 1019 947Q1100 908 1100 826Q1100 753 1033 662Q1002 620 854 465Q695 298 626 212Q513 73 513 11Q513-32 557-32Q650-32 810 121Q858 168 1027 356Q1217 568 1475 798Q1750 1043 1820 1043Q1845 1043 1845 1023M1528 315Q1528 371 1464 371Q1439 371 1406 358Q1300 316 1209 196Q1123 82 1100-36Q1203-36 1319 40Q1426 111 1487 206Q1528 270 1528 315Z"  horiz-adv-x="1491" vert-adv-y="1000"  />

      
      <glyph glyph-name="uni56" unicode="&#x56;" d="M2770 844Q2770 704 2660 596Q2565 504 2408 451Q2267 403 2132 403Q1992 403 1893 445Q1758 502 1758 623Q1758 740 1891 831Q2032 927 2218 927Q2477 927 2517 777Q2521 762 2521 754Q2521 749 2517 747Q2483 902 2235 902Q2050 902 1906 813Q1769 728 1769 620Q1769 513 1894 463Q1984 427 2111 427Q2240 427 2381 469Q2544 518 2643 602Q2760 703 2760 835Q2760 980 2606 1042Q2500 1085 2329 1085Q2177 1085 2003 1031Q1842 980 1700 896Q1322 672 958 313Q844 198 613-31Q575-67 554-67Q525-67 525-31Q525 89 754 383Q858 516 1094 741L1094 742Q743 440 437 440Q305 440 220 489Q114 550 114 672Q114 832 309 938Q474 1028 648 1028Q749 1028 823 997Q924 955 924 868Q924 838 908 807Q862 716 730 658Q613 607 499 607Q343 607 343 708Q343 782 448 832Q535 873 618 873Q678 873 713 856Q744 841 744 836L744 830Q743 830 737 836Q715 857 649 857Q503 857 409 788Q354 747 354 705Q354 661 400 640Q434 624 485 624Q576 624 672 656Q772 689 838 745Q913 808 913 871Q913 945 821 980Q756 1005 667 1005Q595 1005 521 990Q379 961 267 886Q125 790 125 668Q125 559 227 507Q306 466 426 466Q794 466 1159 815Q1332 980 1367 980Q1377 980 1377 972Q1377 954 1296 891Q1245 853 1195 815Q1180 802 1089 702Q964 565 861 433Q543 25 543-39Q543-58 556-58Q572-58 604-26Q626-4 807 194Q1161 581 1495 813Q1956 1134 2343 1134Q2517 1134 2627 1077Q2770 1002 2770 844Z"  horiz-adv-x="838" vert-adv-y="1000"  />

      
      <glyph glyph-name="uni57" unicode="&#x57;" d="M3090 841Q3090 703 2980 596Q2885 504 2727 451Q2586 403 2452 403Q2310 403 2212 445Q2078 502 2078 625Q2078 741 2210 831Q2351 927 2538 927Q2643 927 2716 899Q2815 861 2837 777Q2840 765 2840 761Q2840 751 2837 747Q2803 902 2555 902Q2407 902 2264 833Q2088 750 2088 618Q2088 512 2216 462Q2307 426 2433 426Q2561 426 2702 470Q2865 519 2963 603Q3080 704 3080 835Q3080 980 2927 1042Q2820 1085 2650 1085Q2497 1085 2314 1025Q2141 968 2003 880Q1808 755 1630 607Q1484 485 1290 295Q1138 146 1006 4Q990-13 956-45Q927-68 911-68Q883-68 883-33Q883-1 916 68Q1053 354 1364 684L1364 685Q1285 625 1116 462Q1022 371 894 230Q786 110 679-9Q625-68 595-68Q567-68 567-30Q567 35 653 176Q777 380 1051 665Q1184 803 1274 882L1274 883Q1087 825 901 767Q659 690 511 611Q310 504 209 364Q139 267 139 177Q139 92 204 42Q263-5 350-5Q387-5 415 2L435 7Q447 10 446 11L449 10Q450 7 439 1Q400-20 333-20Q240-20 181.50 42Q123 104 123 197Q123 228 131 262Q173 444 402 580Q566 679 866 771Q1076 834 1285 897Q1378 981 1414 981Q1426 981 1426 972Q1426 948 1301 891Q1073 651 904 433Q584 19 584-43Q584-57 598-57Q608-57 623-47Q650-28 683 11Q709 43 736 76Q809 162 911 274Q1084 463 1395 728Q1441 768 1488 809Q1570 878 1584 878Q1586 878 1588 877L1590 874Q1587 869 1561 840Q1507 780 1400 655Q1289 527 1122 303Q902 10 902-45Q902-58 915-58Q932-58 1000 15Q1312 349 1465 495Q1734 751 1985 912Q2134 1008 2302 1067Q2490 1134 2646 1134Q2821 1134 2938 1075Q3090 999 3090 841Z"  horiz-adv-x="1195" vert-adv-y="1000"  />

      
      <glyph glyph-name="uni58" unicode="&#x58;" d="M3123 844Q3123 765 3078 692Q3001 568 2833 497Q2685 435 2522 435Q2393 435 2306 472Q2186 524 2186 635Q2186 766 2336 855Q2466 932 2607 932Q2734 932 2811 875Q2863 837 2863 801Q2863 786 2857 779Q2854 792 2847 818Q2832 864 2755 890Q2695 911 2635 911Q2615 911 2593 909Q2461 898 2343 829Q2198 746 2198 630Q2198 532 2307 488Q2385 456 2499 456Q2626 456 2745 490Q2876 527 2968 596Q3112 704 3112 842Q3112 1089 2700 1089Q2390 1089 2085 884Q1830 712 1613 425Q1447 205 1447 73Q1447-44 1555-44Q1636-44 1728 46.50Q1820 137 1820 217Q1820 269 1760 269Q1698 269 1644 208Q1595 151 1585 87Q1584 80 1581 67Q1576 67 1576 75Q1576 148 1630.50 213.50Q1685 279 1756 279Q1837 279 1837 206Q1837 116 1743.50 30Q1650-56 1559-56Q1422-56 1422 81Q1422 226 1593 452Q1967 945 2414 1075Q2566 1119 2701 1119Q2869 1119 2978 1065Q3123 994 3123 844M1765 885Q1765 778 1663 606Q1561 434 1414 287Q1261 136 1091 45Q832-93 547-93Q376-93 263-29Q124 51 124 210Q124 383 296 502Q464 618 676 622L704 622Q837 625 941 575Q1073 511 1073 391Q1073 257 922 175Q796 107 649 107Q560 107 484 141Q388 184 388 263Q388 275 392 292Q397 314 405 314Q405 314 409 313Q410 312 410 311Q410 311 404 295.50Q398 280 398 270Q398 196 483 158Q547 130 631 130Q796 130 929.50 207Q1063 284 1063 391Q1063 497 933 548Q839 586 713 586Q481 586 308 476.50Q135 367 135 212Q135 61 271-15Q381-78 544-78Q824-78 1110 108Q1361 270 1548 523Q1727 765 1727 913Q1727 975 1690 1007Q1653 1039 1589 1039Q1451 1039 1313.50 896Q1176 753 1176 614Q1176 564 1205 537Q1206 536 1214 532Q1222 528 1222 527Q1222 524 1213 524Q1189 524 1175 563Q1164 593 1164 622Q1164 781 1294 915.50Q1424 1050 1582 1050Q1666 1050 1714 1010Q1765 967 1765 885Z"  horiz-adv-x="1857" vert-adv-y="1000"  />

      
      <glyph glyph-name="uni59" unicode="&#x59;" d="M2376 1024Q2376 1010 2336 980Q2292 947 2233 902Q1887 637 1450 107Q1069-356 862-699Q754-877 754-922Q754-937 764-937Q780-937 826-877Q843-856 1052-559Q1153-416 1298-239Q1455-47 1555 53Q1603 101 1609 101Q1612 101 1612 100Q1612 96 1577 62Q1530 17 1478-43Q1273-278 911-781Q787-953 757-953Q719-953 719-911Q719-849 819-682Q1005-372 1256-57Q1529 284 1702 470Q1964 750 2215 931Q2252 955 2289 979Q2348 1017 2348 1026Q2348 1030 2334 1030Q2309 1030 2252 996Q2103 908 1844 668Q1758 588 1648 475Q1396 215 1358 178Q1125-44 1047-44Q1013-44 995-22Q977 0 977 35Q977 128 1140 315Q1291 479 1443 643Q1606 831 1606 928Q1606 989 1539 1017Q1490 1038 1420 1038Q1240 1038 1051 935Q875 838 755 689L755 688Q957 793 1130 793Q1197 793 1240 768Q1293 737 1293 675Q1293 615 1244 546Q1175 448 1062 390Q949 332 828 332Q753 332 706 368Q655 408 655 481Q655 558 713 649L713 650Q561 553 439 427Q288 271 254 136Q346 203 421 203Q519 203 519 120Q519 50 468.50 1.50Q418-47 348-47Q295-47 263-13Q231 21 231 74Q231 79 232 89Q233 99 233 104Q155 31 104-55Q44-158 44-248Q44-341 108-367Q125-374 141-370L143-371Q147-379 115-379Q71-379 44-335Q20-297 20-250Q20-149 88-42Q145 47 236 124Q267 284 427 447Q555 578 731 679Q784 754 902 849Q1011 938 1146 992Q1290 1051 1420 1051Q1507 1051 1567 1024Q1646 987 1646 911Q1646 788 1453 579L1274 385Q1155 256 1116 209Q1006 72 1006 12Q1006-31 1049-31Q1118-31 1328 168Q1354 193 1574 418Q1738 586 1834 675Q2045 871 2209 980Q2303 1042 2348 1042Q2376 1042 2376 1024M1278 676Q1278 733 1228 761Q1189 784 1127 784Q951 784 734 660Q666 562 666 480Q666 412 715 375Q759 342 829 342Q921 342 1029 400Q1114 446 1186 515Q1278 604 1278 676M504 120Q504 193 422 193Q341 193 249 116Q245 94 245 73Q245 26 272-5Q299-36 345-36Q404-36 454 12.50Q504 61 504 120Z"  horiz-adv-x="1595" vert-adv-y="1000"  />

      
      <glyph glyph-name="uni5a" unicode="&#x5a;" d="M1954 943Q1954 882 1831 840Q1728 804 1630 804Q1608 804 1595 807Q1442 688 1194 457Q1279 449 1330 449Q1344 449 1344 443Q1267 435 1160 422Q898 196 749 102Q816 76 988-11Q1094 121 1243 199Q1399 281 1561 281Q1650 281 1709 246Q1780 203 1780 120Q1780-15 1611-87Q1483-141 1326-141Q1134-141 963-63Q897-159 897-233L895-235Q890-231 890-215Q890-154 954-57Q871-12 702 74Q468-59 243-59Q199-59 165-45Q121-26 121 12Q121 41 152 70Q199 113 297 136Q376 154 458 154Q603 154 728 110Q882 204 1130 419L1117 419Q1041 418 1041 440Q1041 465 1093 465Q1097 465 1169 459Q1268 549 1367 638Q1481 740 1572 808Q1445 821 1302 902Q1209 954 1155 973Q1080 1000 994 1000Q859 1000 757 947Q630 880 630 757Q630 678 702 633Q764 594 848 594Q938 594 1014 628Q1111 672 1111 751Q1111 788 1084.50 810Q1058 832 1020 832Q957 832 920 799Q913 791 899 776Q898 779 898 781Q898 786 912 803Q947 846 1021 846Q1069 846 1102 824Q1140 799 1140 754Q1140 670 1030 622Q944 584 847 584Q757 584 693 623Q617 670 617 754Q617 890 761 964Q877 1024 1026 1024Q1193 1024 1349 938Q1407 905 1464 871Q1532 834 1587 822Q1789 975 1903 975Q1954 975 1954 943M1934 935Q1934 959 1902 959Q1794 959 1610 819Q1614 819 1622 818Q1631 818 1635 818Q1742 818 1838 856.50Q1934 895 1934 935M1769 120Q1769 192 1700 226Q1648 251 1567 251Q1404 251 1252.50 179.50Q1101 108 999-17Q1193-117 1377-117Q1517-117 1627-67Q1769-3 1769 120M683 82Q566 136 453 136Q327 136 237 102Q134 63 134 12Q134-48 250-48Q455-48 683 82Z"  horiz-adv-x="1828" vert-adv-y="1000"  />

      
      <glyph glyph-name="uni5b" unicode="&#x5b;" d="M485 463L481 456Q440 453 433 452Q397 448 389 439Q373 418 342 377L244 249Q174 158 50 7Q-6-61-6-68L-6-68Q-3-73 31-77Q60-81 72-81L67-87L-44-87Q95 102 165 193Q284 347 387 463L485 463Z"  horiz-adv-x="239" vert-adv-y="1000"  />

      
      <glyph glyph-name="uni5c" unicode="&#x5c;" d="M143-78Q143-86 138-86Q134-86 131-73L57 251Q34 353 34 351Q34 360 39.50 372Q45 384 52 384Q59 384 66 350Q80 284 100 170L142-67Q143-73 143-78Z"  horiz-adv-x="239" vert-adv-y="1000"  />

      
      <glyph glyph-name="uni5d" unicode="&#x5d;" d="M398 463Q374 423 264 278Q131 103-33-87L-131-87L-126-80Q-87-78-42-69Q-22-51 11-5Q35 28 59 61Q206 255 305 370Q361 435 361 443Q361 449 326 453Q299 457 283 457L287 463L398 463Z"  horiz-adv-x="239" vert-adv-y="1000"  />

      
      <glyph glyph-name="uni5e" unicode="&#x5e;" d="M291 136Q290 136 288 135Q273 135 197 211Q175 196 116 164Q54 131 44 131Q43 131 42 132Q46 137 126 194.50Q206 252 208 252Q211 252 213 249Q230 227 291 136Z"  horiz-adv-x="307" vert-adv-y="1000"  />

      
      <glyph glyph-name="uni5f" unicode="&#x5f;" d="M445-135L-64-135L-64-105L445-105L445-135Z"  horiz-adv-x="500" vert-adv-y="1000"  />

      
      <glyph glyph-name="uni60" unicode="&#x60;" d="M246 201L245 197Q232 199 198 233.50Q164 268 164 283Q164 302 182 302Q187 302 189 299Q195 292 215 252Q226 235 246 201Z"  horiz-adv-x="307" vert-adv-y="1000"  />

      
      <glyph glyph-name="uni61" unicode="&#x61;" d="M302 99Q302 89 233 34Q183-6 147-6Q118-6 118 18Q118 36 132 51L131 51Q68-6 18-6Q-20-6-20 27Q-20 56 8 88L7 88Q-8 72-12 72Q-14 72-15 73L-15 75Q-15 75-14 79Q11 109 69.50 140.50Q128 172 163 172Q198 172 198 146Q198 140 196 133L197 133Q231 171 259 171Q272 171 272 168Q272 165 221 103.50Q170 42 170 22L172 17Q175 16 179 16Q200 16 248.50 57.50Q297 99 301 100Q302 99 302 99M189 143Q189 161 170 161Q144 161 83.50 103Q23 45 23 21Q23 9 36 9Q65 9 127 63Q189 117 189 143Z"  horiz-adv-x="288" vert-adv-y="1000"  />

      
      <glyph glyph-name="uni62" unicode="&#x62;" d="M534 542Q534 475 225 241Q184 212 124 158Q105 134 66 78L68 75Q170 172 230 172Q272 172 272 141Q272 92 209 42Q150-5 99-5Q69-5 69 15Q69 34 121 54Q156 65 191 76Q226 111 226 145Q226 156 213 156Q163 156 15 10Q0-4-21-4Q-32-4-32 3Q-32 26 42 118L41 118Q4 81-4 81Q-5 81-6 82Q-5 89 25 115Q63 148 63 148Q82 173 120 221Q212 334 300 424Q444 569 502 569Q534 569 534 542M508 539Q508 558 491 558Q450 558 305 390Q201 269 140 184L140 183Q242 268 344 354Q508 498 508 539M183 65L183 66Q156 56 129 46Q88 29 88 18Q88 9 97 9Q138 9 183 65Z"  horiz-adv-x="298" vert-adv-y="1000"  />

      
      <glyph glyph-name="uni63" unicode="&#x63;" d="M221 92Q221 79 157 35Q93-9 39-9Q-14-9-14 27Q-14 58 15 94L14 94Q5 84-15 73L-15 75Q-15 77-14 79Q9 107 68 139Q127 171 160 171Q195 171 195 143Q195 128 184.50 113.50Q174 99 160 99Q146 99 146 113Q146 119 154 133Q162 147 162 154Q162 161 152 161Q127 161 82 107.50Q37 54 37 26Q37 7 60 7Q101 7 160.50 50Q220 93 220 93L221 93L221 92Z"  horiz-adv-x="213" vert-adv-y="1000"  />

      
      <glyph glyph-name="uni64" unicode="&#x64;" d="M496 432Q336 272 208 89Q168 32 168 24Q168 15 179 15Q195 15 240 52Q292 95 301 100L302 98Q289 72 231.50 33Q174-6 146-6Q118-6 118 18Q118 36 132 51L131 51Q68-6 17-6Q-20-6-20 27Q-20 56 8 88L7 88Q-8 72-13 72Q-14 72-15 73L-15 75Q-15 77-14 79Q12 109 69.50 140.50Q127 172 164 172Q205 172 198 140L199 140Q432 439 481 439Q495 439 496 432M188 143Q188 161 170 161Q144 161 83 103.50Q22 46 22 21Q22 9 36 9Q65 9 126.50 63Q188 117 188 143Z"  horiz-adv-x="288" vert-adv-y="1000"  />

      
      <glyph glyph-name="uni65" unicode="&#x65;" d="M227 98Q227 95 218 86Q181 48 136 22Q83-9 38-9Q-17-9-17 28Q-17 55 7 87L6 87Q-8 72-13 72Q-14 72-15 73L-15 75Q-15 75-14 79Q14 110 68 140Q126 171 163 171Q192 171 192 145Q192 100 41 52Q35 32 35 25Q35 7 58 7Q89 7 131 31Q160 48 194 76Q223 101 224 101Q227 101 227 98M157 149Q157 158 145 158Q125 158 90 120Q63 91 47 63L47 62Q157 97 157 149Z"  horiz-adv-x="212" vert-adv-y="1000"  />

      
      <glyph glyph-name="uni66" unicode="&#x66;" d="M535 542Q535 503 467 440.50Q399 378 214 227Q185 205 131 159Q118 147 13 4Q92 26 172 94Q180 101 182 101Q185 101 185 100Q185 95 177 87Q153 62 112 37Q64 14 7-19Q-1-30-9-55Q-16-75-22-94Q-56-183-113-276Q-192-404-245-404Q-268-404-268-381Q-268-276 56 129L55 129Q34 109-6 82Q-5 88 33 121Q56 140 78 158Q122 213 192 299Q260 381 340 457Q457 569 506 569Q535 569 535 542M510 540Q510 558 494 558Q457 558 318 395Q225 287 149 185L149 184Q250 272 351 360Q510 503 510 540M-9-25L-10-25Q-69-104-136-203Q-235-349-235-375Q-235-385-226-385Q-187-385-97-231Q-47-145-9-25Z"  horiz-adv-x="171" vert-adv-y="1000"  />

      
      <glyph glyph-name="uni67" unicode="&#x67;" d="M299 98Q299 83 217 27Q163-11 117-38Q-56-298-226-385Q-267-406-295-406Q-343-406-343-371Q-343-325-256-253Q-193-200-80-130Q-9-88 63-45Q87-13 126 46L126 47Q63-6 17-6Q-21-6-21 27Q-21 59 7 86L7 87Q-11 72-13 72Q-14 72-15 73L-15 75Q-15 75-14 79Q13 110 70.50 140.50Q128 171 166 171Q202 171 198 137L199 137Q229 171 247 171Q265 171 265 164Q265 161 249.50 142.50Q234 124 126-22L126-23L172 7Q217 36 251 63Q264 77 298 100Q299 99 299 98M189 143Q189 161 171 161Q145 161 84 103.50Q23 46 23 21Q23 9 37 9Q66 9 127.50 63Q189 117 189 143M54-62L54-61Q-141-184-158-196Q-308-304-308-368Q-308-393-280-393Q-183-393 54-62Z"  horiz-adv-x="285" vert-adv-y="1000"  />

      
      <glyph glyph-name="uni68" unicode="&#x68;" d="M534 542Q534 503 466 441Q382 364 210 226Q179 204 124 158Q106 140 82 104Q63 76 45 48L48 47Q195 171 243 171Q274 171 274 149Q274 131 235 83Q196 35 196 22L197 18Q200 17 204 17Q225 17 275 57.50Q325 98 330 99L330 97Q330 95 322 86Q292 55 253 28Q203-6 172-6Q141-6 141 14Q141 40 185.50 92Q230 144 230 149Q230 154 223 154Q193 154 97.50 75Q2-4-15-4Q-32-4-32 2Q-32 12 1 60Q27 99 43 119L43 120Q1 81-5 81Q-6 82-6 82Q-5 90 25 116Q45 132 64 148Q65 149 121 221Q198 321 301 424Q445 569 502 569Q534 569 534 542M508 539Q508 558 491 558Q450 558 305 390Q201 269 140 184L140 183Q242 268 344 354Q508 498 508 539Z"  horiz-adv-x="317" vert-adv-y="1000"  />

      
      <glyph glyph-name="uni69" unicode="&#x69;" d="M235 293Q235 279 215.50 265Q196 251 181 251Q177 255 177 269Q177 304 221 304Q235 304 235 293M176 98Q176 87 108 34Q55-7 21-7Q-9-7-9 16Q-9 39 26 84Q55 122 81 143L81 144Q65 133 33 108Q21 97-3 77Q-9 73-13 73L-14 75Q-4 98 51 133.50Q106 169 134 169Q141 169 146 167L146 165Q146 163 95 101.50Q44 40 44 24Q45 21 47 18Q49 15 53 15Q70 15 116.50 55.50Q163 96 176 99L176 98Z"  horiz-adv-x="161" vert-adv-y="1000"  />

      
      <glyph glyph-name="uni6a" unicode="&#x6a;" d="M228 293Q228 279 208.50 265.50Q189 252 174 252Q170 256 170 265Q170 304 212 304Q228 304 228 293M180 97Q177 93 172 86Q158 68 86 19Q25-22-11-42Q-89-154-138-210Q-211-293-294-351Q-373-406-422-406Q-464-406-464-372Q-464-280-65-47Q-30 2 6 51Q54 117 81 144L81 145Q64 133 33 108Q21 96-3 77Q-8 74-13 73L-14 75Q-10 84 11 102Q54 137 69 147Q105 170 136 170Q142 170 145 167Q81 84-1-24L-1-25Q100 32 166 93Q173 100 177 100Q178 100 179 99L180 97M-76-65L-76-64Q-103-82-159-118Q-274-188-321-225Q-432-311-432-371Q-432-392-402-392Q-340-392-220-255Q-141-164-76-65Z"  horiz-adv-x="165" vert-adv-y="1000"  />

      
      <glyph glyph-name="uni6b" unicode="&#x6b;" d="M534 542Q534 503 466 441Q372 355 290 290Q246 258 203 226Q149 186 124 158Q107 139 83 104Q54 60 44 48L46 47Q111 106 136 124Q199 171 241 171Q284 171 284 142Q284 120 258.50 115Q233 110 209 106Q183 96 183 65Q183 18 203 18Q224 18 271 58Q318 98 325 99L325 97Q325 86 256 33Q205-6 170-6Q136-6 136 35Q136 79 162 98Q172 105 210 117Q236 125 236 142Q236 158 221 158Q184 158 95.50 77Q7-4-14-4Q-26-4-30-1L-30 3Q-32 27 41 117L41 118Q4 81-4 81Q-6 81-6 82Q-5 89 25 115Q62 147 63 148Q82 173 120 221Q199 321 296 419Q443 569 502 569Q534 569 534 542M508 539Q508 558 491 558Q429 558 140 184L140 183Q242 268 344 354Q508 498 508 539Z"  horiz-adv-x="312" vert-adv-y="1000"  />

      
      <glyph glyph-name="uni6c" unicode="&#x6c;" d="M527 542Q527 505 458.50 440.50Q390 376 124 158Q111 148 78.50 94Q46 40 46 26L48 21Q52 17 56 17Q90 17 167 93L180 99L180 97Q180 87 112 34Q60-6 22-6Q-9-6-9 17Q-9 47 46 122L45 122Q1 81-5 81Q-6 82-6 82Q-5 90 27 117Q47 134 67 151Q84 173 119 217Q403 569 496 569Q527 569 527 542M502 539Q502 558 485 558Q448 558 304 389Q199 267 140 184L140 183Q243 271 346 360Q502 500 502 539Z"  horiz-adv-x="167" vert-adv-y="1000"  />

      
      <glyph glyph-name="uni6d" unicode="&#x6d;" d="M525 98Q525 86 456 34Q402-6 366-6Q337-6 337 17Q337 40 381 92Q425 144 425 149Q425 154 418 154Q388 154 294 75Q200-4 180-4Q164-4 164 2Q164 22 214.50 83.50Q265 145 265 148Q265 154 257 154Q230 154 133 75Q36-4 20-4Q3-4 3 2Q3 16 51 79.50Q99 143 100 144Q98 150 94 150Q77 150 33 111Q-11 72-12 72Q-16 72-16 76Q-16 82 49 137Q89 171 119 171Q144 171 144 148Q144 131 80 48L83 47Q230 171 277 171Q309 171 309 148Q309 131 282 97Q261 73 240 48L243 47Q390 171 438 171Q469 171 469 149Q469 132 430 83.50Q391 35 391 22L392 18Q395 17 399 17Q420 17 463 52Q517 95 525 99L525 98Z"  horiz-adv-x="512" vert-adv-y="1000"  />

      
      <glyph glyph-name="uni6e" unicode="&#x6e;" d="M367 98Q367 94 335 67Q308 43 296 34Q242-6 206-6Q176-6 176 14Q176 40 220.50 92Q265 144 265 149Q265 154 258 154Q228 154 132.50 75Q37-4 20-4Q3-4 3 2Q3 16 51 79.50Q99 143 100 144Q98 150 94 150Q77 150 33 111Q-11 72-12 72Q-16 72-16 76Q-16 87 39.50 129Q95 171 119 171Q144 171 144 148Q144 131 80 48L83 47Q230 171 278 171Q309 171 309 149Q309 131 270 83Q231 35 231 22L232 18Q235 17 239 17Q261 17 311 58.50Q361 100 363 100Q365 99 366 98.50Q367 98 367 98Z"  horiz-adv-x="352" vert-adv-y="1000"  />

      
      <glyph glyph-name="uni6f" unicode="&#x6f;" d="M262 97Q262 85 224 61Q186 37 171 37Q158 37 153 40Q83-9 39-9Q-10-9-10 28Q-10 65 18 97L18 98Q-8 72-14 72Q-15 72-15 73L-15 75Q-15 75-14 79Q17 112 70 141Q127 171 168 172L174 167Q173 166 163 161Q130 145 84 98Q33 46 33 15Q33 1 47 1Q86 1 140 62Q153 114 190 130Q193 137 193 155Q193 157 191.50 160.50Q190 164 190 166Q190 170 196 170Q205 170 211.50 157.50Q218 145 218 135Q218 100 161 47Q164 46 167 46Q190 46 219 70Q252 97 261 99Q262 98 262 97Z"  horiz-adv-x="248" vert-adv-y="1000"  />

      
      <glyph glyph-name="uni70" unicode="&#x70;" d="M340 99Q338 84 271 34Q218-6 181-6Q148-6 148 17Q148 43 193.50 92Q239 141 239 148Q239 153 231 153Q179 153 29-33Q-31-107-162-289Q-181-317-200-345Q-227-382-241-393.50Q-255-405-265-405Q-288-405-288-380Q-288-355-255-306Q-57-17 101 173L100 173Q-6 74-15 74L-15 74Q-10 86 158 238Q180 258 197 258Q212 258 212 254Q212 252 196 233Q141 169 12-1Q-106-155-183-268Q-247-361-247-372L-247-375Q-246-376-245-376Q-234-376-134-234Q-8-55 66 29Q189 171 255 171Q286 171 286 151Q286 131 244.50 85.50Q203 40 203 26Q203 17 213 17Q235 17 285 57.50Q335 98 340 99Z"  horiz-adv-x="326" vert-adv-y="1000"  />

      
      <glyph glyph-name="uni71" unicode="&#x71;" d="M287 97Q287 96 252 61Q191 0 156-41Q75-136-27-282Q-47-311-66-340Q-91-374-112-392Q-127-405-141-405Q-160-405-160-383Q-160-349-20-153Q70-25 130 51L130 52Q72-6 16-6Q-21-6-21 27Q-21 59 7 86L7 87Q-11 72-13 72Q-14 72-15 73L-15 75Q-15 75-14 79Q10 108 69.50 140Q129 172 163 172Q198 172 198 146Q198 140 196 133L197 133Q232 171 247 171Q265 171 265 164Q265 166 198 78Q-118-337-118-372Q-118-373-117-374.50Q-116-376-115-376Q-105-376-72-328Q101-82 221 43Q240 63 252 75Q277 98 287 99L287 97M189 143Q189 161 170 161Q144 161 83.50 103Q23 45 23 21Q23 9 36 9Q65 9 127 63Q189 117 189 143Z"  horiz-adv-x="274" vert-adv-y="1000"  />

      
      <glyph glyph-name="uni72" unicode="&#x72;" d="M219 98Q219 84 150 34Q96-6 61-6Q30-6 30 18Q30 48 87 98.50Q144 149 144 150Q144 156 133 157Q125 158 111 157Q94 155 94 155Q89 155 80 158Q73 149 32 111Q-9 73-13 73Q-16 73-16 76Q-16 78-8 85Q9 99 72 162Q65 166 65 176Q65 191 79.50 201Q94 211 110 211Q124 211 128 201Q120 195 113 189Q103 181 103 173Q103 166 137 164Q171 162 171 144Q171 134 129 88.50Q87 43 87 24Q87 21 90 18L95 18Q114 17 165.50 59Q217 101 216 101Q219 101 219 98Z"  horiz-adv-x="205" vert-adv-y="1000"  />

      
      <glyph glyph-name="uni73" unicode="&#x73;" d="M242 98Q242 93 212 67Q124-9 33-9Q-28-9-28 40Q-28 62-13.50 82Q1 102 22 102Q44 102 44 87Q44 72 21 56Q-2 40-2 23Q-2 1 27 1Q57 1 80 33Q95 52 113.50 98.50Q132 145 141 157L141 158Q61 93 47 93Q46 93 45 94Q47 100 93 134Q144 171 151 179Q175 207 196 207Q209 207 209 203Q209 197 167 171Q161 167 161 103Q161 81 149 57Q137 33 119 21L119 20Q166 42 201.50 71Q237 100 241 100Q242 99 242 98Z"  horiz-adv-x="228" vert-adv-y="1000"  />

      
      <glyph glyph-name="uni74" unicode="&#x74;" d="M252 307Q211 270 130 168Q138 169 146 169L187 169Q202 169 202 164Q202 157 169 157Q146 157 122 157Q45 57 45 28Q45 16 55 16Q74 16 126 58Q178 100 178 100Q180 100 180 98Q180 87 112 34Q59-7 20-7Q-10-7-10 17Q-10 48 44 120L44 121Q21 99-13 72Q-16 73-16 76Q-16 79 21 112Q67 152 72 157Q65 157 52 156Q39 155 33 155L27 156Q25 158 25 161Q25 167 52 167Q76 167 80 168Q195 313 237 313Q246 313 252 307Z"  horiz-adv-x="167" vert-adv-y="1000"  />

      
      <glyph glyph-name="uni75" unicode="&#x75;" d="M333 98Q333 86 265 34Q212-6 179-6Q148-6 148 18Q148 48 203 103L201 105Q67-6 23-6Q-10-6-10 18Q-10 57 80 143L80 144Q64 133 32 108Q20 97-4 77Q-10 73-14 73L-15 75Q2 102 50 134Q102 169 132 169Q142 169 144 166Q143 164 89 95Q44 38 44 24Q45 23 47 20Q49 17 54 17Q78 17 253 160Q266 171 282 171Q303 171 303 166Q303 161 252.50 101Q202 41 202 26Q202 22 204 19.50Q206 17 210 17Q244 17 320 93L333 99L333 98Z"  horiz-adv-x="320" vert-adv-y="1000"  />

      
      <glyph glyph-name="uni76" unicode="&#x76;" d="M309 99Q272 45 221 45Q194 45 190 64Q65-9 18-9Q3-9 3 5Q3 11 51.50 68.50Q100 126 101 143L98 148L92 150Q60 137-2 79Q-9 72-12 72Q-16 72-16 76Q-16 86 39.50 128.50Q95 171 119 171Q147 171 147 143Q147 92 55 11L55 10Q80 17 125.50 39.50Q171 62 189 77Q193 103 212 135Q235 171 257 171Q269 171 269 157Q269 136 243 108Q223 85 199 70Q201 54 223 54Q246 54 276 77Q306 100 308 100Q309 100 309 99Z"  horiz-adv-x="295" vert-adv-y="1000"  />

      
      <glyph glyph-name="uni77" unicode="&#x77;" d="M440 97Q440 85 405.50 65Q371 45 354 45Q331 45 323 59Q241-7 185-7Q150-7 150 19Q150 39 166 62Q180 80 194 98L192 100Q68-7 23-7Q-4-7-4 18Q-4 67 92 150L92 151Q74 144 32.50 108.50Q-9 73-12 72L-15 75Q-11 85 24 113Q93 169 133 169Q152 169 152 165Q152 164 99.50 107Q47 50 47 28Q47 17 56 17Q80 17 165 89.50Q250 162 267 162Q288 162 288 157Q288 154 243.50 97.50Q199 41 199 22Q199 11 213 11Q232 11 270 34Q305 55 319 72Q319 96 342.50 133.50Q366 171 388 171Q400 171 400 154Q400 126 331 66Q336 54 354 54Q373 54 405 77Q437 100 438 100Q439 100 440 97Z"  horiz-adv-x="426" vert-adv-y="1000"  />

      
      <glyph glyph-name="uni78" unicode="&#x78;" d="M293 92Q293 85 265 62Q222 27 207 18Q170-6 139-6Q93-6 93 33Q93 40 95 49L94 49Q60-6 20-6Q-18-6-18 26Q-18 44-7 58Q4 72 21 72Q42 72 42 55Q43 54 43 53Q43 48 31.50 37Q20 26 20 17Q20 10 31 10Q52 10 94 64Q136 118 136 141Q136 157 118 157Q93 157 40.50 114.50Q-12 72-14 72Q-15 72-15 73L-15 75Q-15 75-14 79Q34 123 54 138Q99 171 133 171Q177 171 177 133Q177 126 175 117L176 117Q224 171 255 171Q284 171 284 147Q284 109 251 109Q235 109 235 120Q235 130 246 144Q247 151 238 151Q217 151 176 100.50Q135 50 135 27Q135 9 156 9Q188 9 239 51Q290 93 292 93Q293 93 293 92Z"  horiz-adv-x="285" vert-adv-y="1000"  />

      
      <glyph glyph-name="uni79" unicode="&#x79;" d="M328 97Q328 94 318 85Q241 12 196-41Q113-138 13-282Q-20-330-28-340Q-56-378-71.50-391.50Q-87-405-101-405Q-120-405-120-383Q-120-346 10-167L210 109L207 110Q61-7 19-7Q-7-7-7 17Q-7 62 80 143L80 144Q64 133 32 108Q20 97-4 77Q-10 73-14 73L-15 75Q-15 85 60 142Q96 169 132 169Q139 169 144 166L144 164Q144 163 94 100Q44 37 44 23Q44 17 50 17Q71 17 151 79Q202 119 252 160Q266 171 281 171Q301 171 301 166Q301 166 111.50-90.50Q-78-347-78-372Q-78-373-77-374.50Q-76-376-75-376Q-67-376-50-353Q34-236 119-119Q220 14 314 93Q322 100 325 100Q328 100 328 97Z"  horiz-adv-x="313" vert-adv-y="1000"  />

      
      <glyph glyph-name="uni7a" unicode="&#x7a;" d="M259 98Q259 86 127-4Q128-11 128-20Q128-71 67-149Q23-206-34-256Q-204-405-291-405Q-333-405-333-370Q-333-303-159-177Q-118-148 93-15Q94-9 94-4Q94 29 66 29Q44 29 22 13Q4-1-15-15Q-21-6-21-8Q-21-5-15 4Q10 25 27 34Q72 57 118 79Q170 108 198 139Q203 144 202 148L200 150Q177 141 154 132Q127 121 106 121Q68 121 58 139Q-6 73-12 73Q-13 73-15 74L-15 77L-15 79Q19 117 53 148L53 152Q53 195 96 195Q113 195 113 185Q96 173 96 162Q96 149 125 149Q148 149 182 159Q216 169 218 169Q228 169 228 162Q228 155 220 144Q194 109 142 80Q96 58 50 36L50 35Q64 39 69 39Q111 39 124 5Q154 25 214 67Q223 76 244 93Q253 99 257 99L258 99Q259 98 259 98M90-26Q38-59-65-126Q-309-282-309-373Q-309-394-286-394Q-212-394-70-246Q65-107 90-26Z"  horiz-adv-x="244" vert-adv-y="1000"  />

      
      <glyph glyph-name="uni7b" unicode="&#x7b;" d="M555 463L549 455Q542 455 529 456Q516 456 509 456Q458 456 418 436Q388 421 355 360Q313 284 292 260Q246 209 178 206Q193 191 193 165Q193 135 133.50 62Q74-11 74-33Q74-59 108-71Q123-76 164-81L158-87Q50-87 50-27Q50 8 109 81Q168 154 168 179Q168 205 139 212L139 213Q208 213 252 260Q265 274 316 358Q354 421 399 445Q437 465 520 465Q520 465 555 463Z"  horiz-adv-x="295" vert-adv-y="1000"  />

      
      <glyph glyph-name="uni7c" unicode="&#x7c;" d="M82-250L62-250L62 750L82 750L82-250Z"  horiz-adv-x="144" vert-adv-y="1000"  />

      
      <glyph glyph-name="uni7d" unicode="&#x7d;" d="M366 404Q366 371 309 300Q252 229 252 204Q252 179 281 174L281 173Q276 174 271 174Q264 174 256 172Q206 161 171 123Q151 101 118.50 45Q86-11 63-35Q13-88-103-88Q-104-88-139-86L-133-79Q-61-79-31-72Q13-62 53 4Q119 111 125 118Q175 177 247 180Q226 197 226 220Q226 245 284 316Q342 387 342 409Q342 447 253 458L258 463Q366 463 366 404Z"  horiz-adv-x="295" vert-adv-y="1000"  />

      
      <glyph glyph-name="uni7e" unicode="&#x7e;" d="M308 153Q308 148 306 147Q306 148 302 153Q280 181 224 181Q204 181 164.50 169.50Q125 158 104 158Q89 158 70.50 169Q52 180 52 195Q52 197 53 198Q59 193 64 188Q74 179 90 179Q114 179 158.50 196.50Q203 214 227 214Q258 214 281 200Q308 183 308 153Z"  horiz-adv-x="307" vert-adv-y="1000"  />

      
      <glyph glyph-name="uni201A" unicode="&#x201A;" d="M73 36Q73 21 30.50-15Q-12-51-23-50L-24-50L-25-48Q-14-36-3-23Q19 2 19 12Q19 13 18 15Q18 17 18 18Q18 29 34 37Q47 44 60 44Q73 44 73 36Z"  horiz-adv-x="141" vert-adv-y="1000"  />

      
      <glyph glyph-name="uni201E" unicode="&#x201E;" d="M161 35Q161 22 118.50-14Q76-50 64-50Q63-50 63-50L62-48Q106-1 106 13Q106 23 107 25Q110 33 124 38.50Q138 44 148 44Q161 44 161 35M73 34Q73 21 30.50-15.50Q-12-52-23-51L-24-51L-25-49Q-14-37-3-24Q19 1 19 11Q19 12 18 14Q18 16 18 17Q18 28 34 36Q47 43 60 43Q73 43 73 34Z"  horiz-adv-x="228" vert-adv-y="1000"  />

      
      <glyph glyph-name="uni2026" unicode="&#x2026;" d="M330 33Q330 20 310 5.50Q290-9 276-9Q272-4 272 6Q272 44 314 44Q330 44 330 33M203 33Q203 20 183 5.50Q163-9 149-9Q145-4 145 6Q145 44 187 44Q203 44 203 33M76 33Q76 20 56 5.50Q36-9 22-9Q18-4 18 6Q18 44 60 44Q76 44 76 33Z"  horiz-adv-x="378" vert-adv-y="1000"  />

      
      <glyph glyph-name="uni2020" unicode="&#x2020;" d="M363 194Q363 189 340 188L248 185Q190 114 73-27Q51-56 9-103Q2-108-2-108Q-6-108-6-105Q-6-99 4-86Q54-19 155 115L206 183L145 183Q112 183 112 193Q112 206 141 206L180 206Q197 206 220 204Q245 240 300 307Q313 321 336 321Q346 321 346 314Q346 300 261 202Q268 202 340 199Q363 198 363 194Z"  horiz-adv-x="356" vert-adv-y="1000"  />

      
      <glyph glyph-name="uni2021" unicode="&#x2021;" d="M371 211Q371 207 364 206Q327 205 261 202L176 99Q206 97 269 94Q291 93 291 90Q291 85 284 84Q281 83 269 83L161 80Q114 23 20-91Q6-108-1-108Q-6-108-6-104Q-6-98 4-85L127 79L74 79Q41 79 41 90Q41 102 71 102Q108 102 143 99Q161 124 218 201Q153 198 132 202Q121 204 121 212Q121 223 151 223Q181 223 233 221Q253 252 299 307Q313 320 335 320Q346 320 346 313Q346 305 275 219Q299 218 348 216Q371 215 371 211Z"  horiz-adv-x="356" vert-adv-y="1000"  />

      
      <glyph glyph-name="uni02C6" unicode="&#x02C6;" d="M296 201L293 200Q278 200 242 246Q225 236 187 218Q142 198 132 198Q128 198 128 201Q128 202 130 204Q141 210 162 223Q191 239 244 276Q250 281 254 281Q257 281 260 274Q296 195 296 201Z"  horiz-adv-x="307" vert-adv-y="1000"  />

      
      <glyph glyph-name="uni2030" unicode="&#x2030;" d="M521 116Q521 78 477.50 36Q434-6 396-6Q361-6 361 27Q361 63 403.50 103.50Q446 144 482 144Q487 144 487 142Q487 140 482 139Q477 138 471 133Q445 113 425 87Q390 41 390 15Q390 3 405 3Q429 3 463.50 53Q498 103 498 129Q498 135 496 137Q490 144 490 142Q491 144 495 144Q521 144 521 116M364 116Q364 79 321 36.50Q278-6 239-6Q203-6 203 27Q203 54 229 86Q253 115 281.50 129.50Q310 144 325 144Q330 144 330 142Q330 140 325 139Q320 138 313.50 133Q307 128 293 115Q233 54 233 17Q233 3 248 3Q271 3 306.50 53Q342 103 342 128Q342 135 337.50 138Q333 141 333 142Q334 144 338 144Q364 144 364 116M377 297Q377 294 304 219Q262 176 220 133Q183 94 69-34Q61-43 56-43Q54-43 53-42L52-40Q52-32 168 97Q257 199 305 250L305 251Q271 230 233 230Q221 230 203 237Q205 230 205 223Q205 187 160.50 144.50Q116 102 80 102Q45 102 45 135Q45 173 87.50 213Q130 253 168 253Q170 252 170 251Q170 253 154 242Q132 227 104 189Q74 147 74 124Q74 112 88 112Q112 112 147 161Q182 210 182 235Q182 243 180 245Q174 254 174 250Q174 253 179 253Q192 253 196 247Q211 238 232 238Q286 238 326 273Q335 282 345.50 291Q356 300 369 300Q377 300 377 297Z"  horiz-adv-x="548" vert-adv-y="1000"  />

      
      <glyph glyph-name="uni2039" unicode="&#x2039;" d="M163 166Q168 161 148 142L130 125Q109 106 88 93Q107 43 107 13L107 7Q107 4 105 4L104 4Q99 4 99 11Q92 28 80 49L68 70Q52 98 52 95Q52 97 52.50 99Q53 101 83 118Q110 134 155 162Q160 167 163 166Z"  horiz-adv-x="196" vert-adv-y="1000"  />

      
      <glyph glyph-name="uni2018" unicode="&#x2018;" d="M181 362Q177 359 173 355Q145 325 145 303Q145 301 145 299Q146 297 146 296Q146 284 132.50 276.50Q119 269 106 269Q97 269 97 278Q97 292 131 328Q165 364 179 364Q180 364 180 364L181 362Z"  horiz-adv-x="91" vert-adv-y="1000"  />

      
      <glyph glyph-name="uni2019" unicode="&#x2019;" d="M177 349Q177 336 134.50 299.50Q92 263 81 264L80 264L79 266Q90 278 101 291Q123 316 123 326Q123 327 122 329Q122 331 122 332Q122 343 138 351Q151 358 164 358Q177 358 177 349Z"  horiz-adv-x="91" vert-adv-y="1000"  />

      
      <glyph glyph-name="uni201C" unicode="&#x201C;" d="M260 362Q256 359 252 355Q224 325 224 303Q224 301 224 299Q225 297 225 296Q225 284 211.50 276.50Q198 269 185 269Q176 269 176 279Q176 293 210 328.50Q244 364 258 364L259 364L260 362M181 363Q178 360 174 356Q146 326 146 302Q146 293 145 291Q139 270 107 270Q97 270 97 280Q97 293 131 329Q165 365 178 365Q180 365 181 363Z"  horiz-adv-x="179" vert-adv-y="1000"  />

      
      <glyph glyph-name="uni201D" unicode="&#x201D;" d="M273 349Q273 336 230.50 300Q188 264 176 264Q175 264 175 264L174 266Q218 313 218 327Q218 337 219 339Q222 347 236 352.50Q250 358 260 358Q273 358 273 349M185 349Q185 334 142.50 298Q100 262 89 263L88 263L87 265Q98 277 109 290Q131 315 131 325Q131 326 130 328Q130 330 130 331Q130 342 146 350Q159 357 172 357Q185 357 185 349Z"  horiz-adv-x="179" vert-adv-y="1000"  />

      
      <glyph glyph-name="uni2022" unicode="&#x2022;" d="M202 147Q202 126 187.50 111.50Q173 97 152 97Q130 97 115.50 111Q101 125 101 147Q101 169 115.50 183.50Q130 198 152 198Q173 198 187.50 183Q202 168 202 147Z"  horiz-adv-x="256" vert-adv-y="1000"  />

      
      <glyph glyph-name="uni2013" unicode="&#x2013;" d="M322 99Q322 94 307 93Q160 87 67 87Q46 87 46 97Q46 112 64 112Q77 112 195 108L306 104Q322 103 322 99Z"  horiz-adv-x="356" vert-adv-y="1000"  />

      
      <glyph glyph-name="uni2014" unicode="&#x2014;" d="M518 99Q518 92 454 92L69 87Q46 87 46 97Q46 112 63 112Q72 112 206 109Q420 104 502 104Q518 104 518 99Z"  horiz-adv-x="552" vert-adv-y="1000"  />

      
      <glyph glyph-name="uni02DC" unicode="&#x02DC;" d="M318 260Q318 247 294 225Q279 211 258 211Q245 211 224.50 224.50Q204 238 190 238Q177 238 163 224Q149 210 148 210Q148 210 147 210Q146 211 146 213Q146 229 173 251Q187 262 206 262Q220 262 239.50 248Q259 234 272 234Q286 234 300.50 248.50Q315 263 316 263Q316 263 317 263Q318 262 318 260Z"  horiz-adv-x="307" vert-adv-y="1000"  />

      
      <glyph glyph-name="uni2122" unicode="&#x2122;" d="M420 193L355 193L355 203Q373 205 373 221Q373 235 368 295Q353 262 324 196L314 193Q307 211 291 247Q284 262 270 293L269 293Q269 284 266 257Q264 234 264 220Q264 203 279 203L279 193L234 193L234 203Q243 203 246.50 207Q250 211 255 244Q260 274 260 285Q260 302 242 305L242 314L291 314Q304 285 328 228L366 314L414 314L414 305Q394 304 396 283Q398 248 408 208Q411 204 420 203L420 193M231 281L221 279Q216 297 210.50 300Q205 303 184 303L184 228Q184 203 204 203L204 193L134 193L134 203Q155 203 155 228L155 303Q134 303 129 301Q121 297 117 279L107 281L111 314L227 314L231 281Z"  horiz-adv-x="487" vert-adv-y="1000"  />

      
      <glyph glyph-name="uni203A" unicode="&#x203A;" d="M134 71Q133 67 123 63Q101 50 53 22Q50 20 25 3Q24 3 23 4Q20 9 39 28Q72 61 99 77Q82 121 79 156Q79 166 82 166L83 166Q85 166 88 159Q102 134 129 83Q135 75 134 71Z"  horiz-adv-x="196" vert-adv-y="1000"  />

      
      <glyph glyph-name="uni040E" unicode="&#x040E;" d="M2107 1126Q2107 1108 2022 1044Q1960 997 1894 997Q1809 997 1809 1087Q1809 1105 1819 1122Q1829 1139 1846 1139Q1885 1139 1885 1107Q1885 1083 1874 1070Q1866 1062 1841 1049Q1853 1018 1902 1018Q1940 1018 1988 1048Q2017 1065 2060 1102Q2095 1131 2100 1131Q2107 1131 2107 1126M2376 1024Q2376 1010 2336 980Q2292 947 2233 902Q1887 637 1450 107Q1069-356 862-699Q754-877 754-922Q754-937 764-937Q780-937 826-877Q843-856 1052-559Q1153-416 1298-239Q1455-47 1555 53Q1603 101 1609 101Q1612 101 1612 100Q1612 96 1577 62Q1530 17 1478-43Q1273-278 911-781Q787-953 757-953Q719-953 719-911Q719-849 819-682Q1005-372 1256-57Q1529 284 1702 470Q1964 750 2215 931Q2252 955 2289 979Q2348 1017 2348 1026Q2348 1030 2334 1030Q2309 1030 2252 996Q2103 908 1844 668Q1758 588 1648 475Q1396 215 1358 178Q1125-44 1047-44Q1013-44 995-22Q977 0 977 35Q977 128 1140 315Q1291 479 1443 643Q1606 831 1606 928Q1606 989 1539 1017Q1490 1038 1420 1038Q1240 1038 1051 935Q875 838 755 689L755 688Q957 793 1130 793Q1197 793 1240 768Q1293 737 1293 675Q1293 615 1244 546Q1175 448 1062 390Q949 332 828 332Q753 332 706 368Q655 408 655 481Q655 558 713 649L713 650Q561 553 439 427Q288 271 254 136Q346 203 421 203Q519 203 519 120Q519 50 468.50 1.50Q418-47 348-47Q295-47 263-13Q231 21 231 74Q231 79 232 89Q233 99 233 104Q155 31 104-55Q44-158 44-248Q44-341 108-367Q125-374 141-370L143-371Q147-379 115-379Q71-379 44-335Q20-297 20-250Q20-149 88-42Q145 47 236 124Q267 284 427 447Q555 578 731 679Q784 754 902 849Q1011 938 1146 992Q1290 1051 1420 1051Q1507 1051 1567 1024Q1646 987 1646 911Q1646 788 1453 579L1274 385Q1155 256 1116 209Q1006 72 1006 12Q1006-31 1049-31Q1118-31 1328 168Q1354 193 1574 418Q1738 586 1834 675Q2045 871 2209 980Q2303 1042 2348 1042Q2376 1042 2376 1024M1278 676Q1278 733 1228 761Q1189 784 1127 784Q951 784 734 660Q666 562 666 480Q666 412 715 375Q759 342 829 342Q921 342 1029 400Q1114 446 1186 515Q1278 604 1278 676M504 120Q504 193 422 193Q341 193 249 116Q245 94 245 73Q245 26 272-5Q299-36 345-36Q404-36 454 12.50Q504 61 504 120Z"  horiz-adv-x="1595" vert-adv-y="1000"  />

      
      <glyph glyph-name="uni045E" unicode="&#x045E;" d="M299 266Q297 249 264 230.50Q231 212 212 212Q202 212 190.50 218.50Q179 225 179 234L179 259Q184 270 193 270Q209 270 209 257Q209 243 191 233Q196 221 213 221Q232 221 264.50 244Q297 267 297 267Q298 267 299 266M328 97Q328 94 318 85Q241 12 196-41Q113-138 13-282Q-20-330-28-340Q-56-378-71.50-391.50Q-87-405-101-405Q-120-405-120-383Q-120-346 10-167L210 109L207 110Q61-7 19-7Q-7-7-7 17Q-7 62 80 143L80 144Q64 133 32 108Q20 97-4 77Q-10 73-14 73L-15 75Q-15 85 60 142Q96 169 132 169Q139 169 144 166L144 164Q144 163 94 100Q44 37 44 23Q44 17 50 17Q71 17 151 79Q202 119 252 160Q266 171 281 171Q301 171 301 166Q301 166 111.50-90.50Q-78-347-78-372Q-78-373-77-374.50Q-76-376-75-376Q-67-376-50-353Q34-236 119-119Q220 14 314 93Q322 100 325 100Q328 100 328 97Z"  horiz-adv-x="313" vert-adv-y="1000"  />

      
      <glyph glyph-name="unia4" unicode="&#xa4;" d="M329 244Q329 235 278 197Q284 185 284 171Q284 111 223 61Q254 18 254 8Q254 0 247 0Q243 0 226 22Q211 40 206 49Q166 19 125 19Q95 19 74 42Q12 2 8 2Q5 4 5 6Q5 11 63 57Q57 68 57 88Q57 147 117 193Q87 242 87 248Q87 254 94 254Q98 254 104 244Q114 231 134 206Q174 234 216 234Q250 234 268 212Q318 248 324 248Q329 248 329 244M245 172Q245 221 203 221Q164 221 128 170Q95 123 95 81Q95 30 135 30Q176 30 212 82Q245 129 245 172Z"  horiz-adv-x="320" vert-adv-y="1000"  />

      
      <glyph glyph-name="uni0490" unicode="&#x0490;" d="M2365 1053Q2365 963 2300 889Q2263 869 2229 870L2206 870Q2110 871 1996 926Q1898 976 1801 1026Q1683 1080 1576 1079L1571 1079Q1532 896 1384 760Q1303 686 1197 638Q1083 586 982 586Q848 586 848 679Q848 740 921 839Q903 879 903 927Q903 1025 981 1125Q1052 1217 1162 1277.50Q1272 1338 1369 1338Q1456 1338 1515 1281Q1574 1224 1574 1137Q1574 1124 1572 1111Q1666 1111 1792 1057Q1896 1006 2001 956Q2118 902 2192 902Q2319 902 2340 1046Q2341 1067 2345 1103Q2365 1098 2365 1053M1767 966Q1767 950 1736 938Q1671 914 1628 864Q1560 785 1384 524Q1246 320 1183 244Q1065 100 943 29Q795-57 611-57Q430-57 338 35Q238 50 168 97Q81 156 81 245Q81 336 152 386Q214 429 309 429Q324 429 339 428Q399 506 499.50 557Q600 608 698 608Q743 608 784 601Q785 618 792 642Q801 671 813 674L815 672Q813 669 809 662Q795 636 791 600Q899 578 947 507Q1122 517 1376 717Q1433 762 1490 808Q1557 860 1609 893Q1635 907 1687 937Q1704 948 1720 959Q1743 974 1755 974Q1760 974 1765 972Q1767 970 1767 966M1565 1119Q1566 1203 1499 1258Q1437 1310 1351 1310Q1201 1310 1060 1195Q911 1074 911 928Q911 884 929 844Q1052 965 1222 1039Q1402 1117 1565 1111L1565 1119M1557 1078L1543 1078Q1398 1079 1219 1007.50Q1040 936 935 835Q980 768 1074 768Q1167 768 1267 837Q1328 879 1346 928Q1347 931 1350 935Q1351 931 1351 930Q1351 887 1278 829Q1214 779 1163 764Q1129 754 1084 754Q978 754 930 829Q902 803 882 767Q860 726 860 692Q860 644 905 619Q941 600 994 600Q1070 600 1180 648Q1398 743 1494 913Q1547 1007 1557 1078M1676 921L1676 922Q1635 903 1586 867Q1544 835 1502 803Q1418 738 1335 673Q1232 595 1155 552Q1053 496 959 480Q977 445 977 398Q977 235 814 123Q669 23 498 23Q475 23 373 32Q464-46 617-46Q759-46 897 35Q1018 106 1120 228Q1171 288 1279 444Q1342 536 1474 717Q1587 865 1676 921M929 506Q886 564 791 587Q799 505 917 505Q924 505 929 506M960 403Q960 446 941 477Q865 477 832 494Q784 518 784 587Q743 598 700 598Q607 598 513.50 548.50Q420 499 364 422Q457 408 492 341Q501 324 501 315Q501 312 498 309Q496 314 492 324Q462 399 359 414Q295 334 295 217Q295 111 363 45Q409 37 468 37Q567 37 649 61Q775 97 862 183Q960 281 960 403M331 417Q316 418 301 418Q221 418 166 376Q105 330 105 253Q105 171 178 114Q238 67 328 49L328 50Q266 119 266 218Q266 332 331 417Z"  horiz-adv-x="1379" vert-adv-y="1000"  />

      
      <glyph glyph-name="unia6" unicode="&#xa6;" d="M82 325L62 325L62 675L82 675L82 325M82-175L62-175L62 175L82 175L82-175Z"  horiz-adv-x="144" vert-adv-y="1000"  />

      
      <glyph glyph-name="unia7" unicode="&#xa7;" d="M361 282Q361 269 352.50 257Q344 245 332 245Q313 245 313 263Q313 272 321.50 283Q330 294 330 297Q330 312 302 312Q274 312 252.50 291Q231 270 231 242Q231 223 246 187Q261 151 261 132Q261 91 227.50 63.50Q194 36 152 33Q159 11 159-6Q159-48 122-76Q85-104 42-104Q14-104-6-91Q-30-76-30-50Q-30-34-20.50-21.50Q-11-9 4-9Q27-9 27-28Q27-40 16.50-52Q6-64 6-68Q6-93 46-93Q79-93 102-73Q125-53 125-20Q125-1 111.50 34.50Q98 70 98 89Q98 101 104 115Q131 185 207 185Q200 208 200 228Q200 268 235 295Q267 321 308 321Q328 321 344.50 311Q361 301 361 282M225 114Q225 145 210 175L209 175Q176 175 152.50 156Q129 137 129 105Q129 89 147 42Q179 45 202 64Q225 83 225 114Z"  horiz-adv-x="356" vert-adv-y="1000"  />

      
      <glyph glyph-name="uni0401" unicode="&#x0401;" d="M1281 1136Q1281 1122 1261.50 1108Q1242 1094 1227 1094Q1223 1098 1223 1112Q1223 1147 1267 1147Q1281 1147 1281 1136M1081 1136Q1081 1122 1061.50 1108Q1042 1094 1027 1094Q1023 1098 1023 1112Q1023 1147 1067 1147Q1081 1147 1081 1136M1276 775Q1276 696 1208 651Q1150 611 1067 611Q1012 611 969 630Q917 654 903 700Q860 691 804 691Q721 691 642 705Q624 660 624 611Q624 589 628 570Q661 576 688 576Q797 576 797 525Q797 483 732 483Q630 483 591 551Q456 512 351 383Q242 251 242 114Q242 15 295.50-39.50Q349-94 447-94Q587-94 711 8Q768 55 807 115Q853 187 853 250Q853 309 810 344Q770 376 709 376Q616 376 544 320Q466 259 466 169Q466 101 537 101Q559 101 598 120L598 118Q598 118 597 114Q577 90 527 90Q489 90 464.50 115.50Q440 141 440 178Q440 266 535 330Q621 387 713 387Q786 387 834 347Q886 305 886 233Q886 154 829 79Q763-9 657-59Q555-107 442-107Q331-107 258-52Q178 9 178 117Q178 269 310 400Q428 519 586 561Q575 590 575 619Q575 669 596 714Q466 751 385 817Q282 900 282 1017Q282 1124 363 1191Q439 1254 548 1254Q644 1254 725 1200Q818 1140 818 1049Q818 1034 813 1033Q810 1034 810 1038Q810 1117 724 1183Q650 1240 546 1240Q445 1240 375 1186Q299 1127 299 1029Q299 919 402 837Q482 774 607 737Q662 832 782 886Q889 933 1009 933Q1107 933 1179 902Q1276 860 1276 775M1265 774Q1265 855 1173 894Q1106 922 1013 922Q903 922 806 872Q701 818 652 727L652 726Q740 706 840 706Q863 706 902 712L902 717Q901 756 930 785Q959 814 998 814Q1038 814 1038 782Q1038 728 914 702Q937 632 1066 632Q1140 632 1197 665Q1265 705 1265 774M1027 783Q1027 805 995 805Q961 805 936.50 778Q912 751 913 717L913 714Q1027 738 1027 783M785 526Q785 566 687 566Q661 566 631 560Q649 492 738 492Q785 492 785 526Z"  horiz-adv-x="910" vert-adv-y="1000"  />

      
      <glyph glyph-name="unia9" unicode="&#xa9;" d="M429 135Q429 70 380.50 25.50Q332-19 267-19Q201-19 152.50 25.50Q104 70 104 135Q104 200 152.50 245Q201 290 267 290Q332 290 380.50 245Q429 200 429 135M403 134Q403 191 363 231Q323 271 267 271Q211 271 171 230.50Q131 190 131 134Q131 78 171 38.50Q211-1 267-1Q323-1 363 38.50Q403 78 403 134M342 102Q342 77 335 67Q324 51 281 51Q241 51 213 71Q182 94 182 133Q182 173 213 197Q241 219 282 219Q341 219 341 185L341 163L326 163Q324 205 282 205Q222 205 222 136Q222 65 280 65Q316 65 330 102L342 102Z"  horiz-adv-x="509" vert-adv-y="1000"  />

      
      <glyph glyph-name="uni0404" unicode="&#x0404;" d="M1549 733Q1549 687 1526 631Q1506 582 1476 544Q1415 465 1284 413Q1164 365 1055 365Q896 365 813 412Q706 472 706 569Q706 656 783 723Q848 779 942 805Q999 821 1080 821Q1220 821 1284 748Q1313 716 1313 682Q1313 651 1294 638L1290 638Q1303 658 1303 685Q1303 710 1278 742Q1230 802 1096 802Q1020 802 954 786Q903 774 839 738Q770 698 744 660Q712 615 712 563Q712 475 835 429Q925 395 1032 395Q1201 395 1355 478Q1539 576 1539 729Q1539 962 1146 962Q1003 962 841 891Q701 829 571 726L571 723Q618 722 655 698Q699 670 699 626Q699 580 623 545Q558 516 505 516Q448 516 374 532Q198 295 198 118Q198 13 255.50-45.50Q313-104 418-104Q589-104 735 53Q846 173 846 277Q846 332 812.50 361.50Q779 391 724 391Q635 391 546 312Q457 233 457 146Q457 56 537 56Q587 56 623 87Q624 85 624 83Q624 70 588 57Q556 45 539 45Q444 45 444 153Q444 252 536 329Q623 402 724 402Q873 402 873 263Q873 112 719-6Q575-117 420-117Q297-117 225-60Q146 2 146 122Q146 320 323 551Q247 578 200 631Q147 689 147 765Q147 779 148 790.50Q149 802 151 802Q156 802 159 773Q160 756 165 723Q188 632 337 567Q338 568 372 604Q562 800 748 886Q945 976 1208 976Q1240 976 1297 965Q1549 917 1549 733M671 630Q671 661 656 678Q644 691 612.50 704Q581 717 558 717Q523 689 457 629Q435 603 390 553Q438 534 524 534Q552 534 600 552Q671 578 671 630Z"  horiz-adv-x="1012" vert-adv-y="1000"  />

      
      <glyph glyph-name="uniab" unicode="&#xab;" d="M248 163Q248 155 215 126Q186 102 171 93Q191 40 191 13Q191 4 188 4Q185 4 184 7Q165 45 151 70Q143 82 135 95Q135 99 167 118Q195 133 238 162Q243 166 245 166Q246 166 247 166L248 163M163 163Q163 155 131 127Q103 102 87 93Q106 43 106 13Q106 4 104 4Q98 4 98 11Q80 52 56 87Q51 94 51 95Q51 102 62 107Q121 136 154 162Q159 166 160 166Q162 166 162 166L163 163Z"  horiz-adv-x="279" vert-adv-y="1000"  />

      
      <glyph glyph-name="uniac" unicode="&#xac;" d="M413 163Q413 161 411 158Q393 137 357 96Q335 68 299 28Q294 24 291 24Q289 24 288.50 25Q288 26 287 27Q287 46 366 145Q277 147 99 152Q80 153 80 159Q80 163 87 165Q90 165 168 167Q243 168 321 171Q388 173 398 173Q413 173 413 163Z"  horiz-adv-x="457" vert-adv-y="1000"  />

      
      <glyph glyph-name="uniad" unicode="&#xad;" d="M195 65L193 60L189 63Q179 79 149 79Q136 79 111.50 74.50Q87 70 74 70Q41 70 38 86L39 89L41 89Q51 84 59 84Q76 84 105 100.50Q134 117 151 117Q196 117 195 65Z"  horiz-adv-x="245" vert-adv-y="1000"  />

      
      <glyph glyph-name="uni2212" unicode="&#x2212;" d="M195 65L193 60L189 63Q179 79 149 79Q136 79 111.50 74.50Q87 70 74 70Q41 70 38 86L39 89L41 89Q51 84 59 84Q76 84 105 100.50Q134 117 151 117Q196 117 195 65Z"  horiz-adv-x="245" vert-adv-y="1000"  />

      
      <glyph glyph-name="uniae" unicode="&#xae;" d="M366 286Q366 234 326.50 196.50Q287 159 234 159Q181 159 140.50 196.50Q100 234 100 286Q100 339 140.50 376.50Q181 414 234 414Q286 414 326 376Q366 338 366 286M345 285Q345 331 312.50 363.50Q280 396 234 396Q189 396 156 363Q123 330 123 285Q123 241 156.50 208Q190 175 234 175Q278 175 311.50 208Q345 241 345 285M319 221Q317 221 311 221Q306 220 303 220Q279 220 263 239Q257 245 238 277Q233 276 226 276Q218 276 218 277L218 258Q218 233 240 233L240 222L167 222L167 233Q188 233 188 259L188 319Q188 340 167 340L167 351L237 351Q287 351 287 317Q287 298 264 287Q278 262 286 253Q301 235 319 231L319 221M256 316Q256 339 225 339Q222 339 218 339L218 288L223 288L228 288Q256 288 256 316Z"  horiz-adv-x="453" vert-adv-y="1000"  />

      
      <glyph glyph-name="uni0407" unicode="&#x0407;" d="M2487 1146Q2487 1132 2467.50 1118Q2448 1104 2433 1104Q2429 1108 2429 1122Q2429 1157 2473 1157Q2487 1157 2487 1146M2287 1146Q2287 1132 2267.50 1118Q2248 1104 2233 1104Q2229 1108 2229 1122Q2229 1157 2273 1157Q2287 1157 2287 1146M2337 1048Q2337 1033 2299 1018Q2272 1009 2222 985Q2140 936 1963 711Q1845 552 1726 394Q1529 133 1315 10Q1075-128 759-128Q566-128 451-58Q313-52 212-10Q68 49 68 162Q68 267 192 322Q286 364 407 364Q486 456 637 519Q780 580 908 584Q943 585 1008 584Q1009 618 1029 646Q1038 658 1040 658L1043 658Q1035 642 1026.50 626Q1018 610 1018 583Q1172 571 1248 504Q1380 521 1524 588Q1631 638 1777 734Q1897 814 2018 894Q2097 944 2163 979Q2186 989 2229 1011Q2253 1026 2277 1040Q2308 1057 2329 1057Q2337 1057 2337 1048M2217 995L2217 996Q2133 957 2016 878Q1899 799 1782 720Q1639 624 1532 571Q1392 501 1268 479Q1303 435 1303 375Q1303 215 1110 90.50Q917-34 630-55Q589-58 501-58L501-59Q611-115 775-115Q1019-115 1238 6Q1443 118 1600 321Q1687 435 1775 548Q1878 680 1958 769Q2105 932 2217 995M1221 501Q1153 558 1019 570Q1027 533 1074 514Q1112 498 1156 498Q1201 498 1221 501M1278 376Q1278 434 1243 475Q1208 470 1154 470Q1098 470 1060 493Q1015 520 1009 571Q974 574 949 574Q811 574 674 520Q528 462 444 363Q578 357 632 289Q638 281 646 265L643 260Q642 261 632 276Q585 346 438 353Q370 271 370 162Q370 28 485-45Q523-47 547-47L557-47Q867-45 1086 93Q1278 214 1278 376M437-44L437-43Q328 33 328 162Q328 269 399 354Q285 352 206 313Q102 262 102 161Q102 63 227 6Q318-35 437-44Z"  horiz-adv-x="1559" vert-adv-y="1000"  />

      
      <glyph glyph-name="unib0" unicode="&#xb0;" d="M169 218Q169 200 155.50 187Q142 174 124 174Q105 174 92 186.50Q79 199 79 218Q79 237 92 250.50Q105 264 124 264Q143 264 156 250.50Q169 237 169 218M154 217Q154 229 145 238Q136 247 124 247Q112 247 103 238Q94 229 94 217Q94 188 124 188Q154 188 154 217Z"  horiz-adv-x="155" vert-adv-y="1000"  />

      
      <glyph glyph-name="unib1" unicode="&#xb1;" d="M375 173Q375 169 360 168Q302 166 233 166Q163 89 157 89Q156 90 155 90.50Q154 91 154 93Q154 100 202 165Q85 160 76 167Q73 168 73 171Q73 186 95 186Q95 186 215 182Q235 212 278 268Q285 276 299 276Q315 276 315 270Q315 265 246 181Q286 180 359 178Q375 178 375 173M303 66Q303 61 288 60Q190 56 40 56Q27 56 27 63Q27 80 51 80Q77 80 288 71Q303 70 303 66Z"  horiz-adv-x="359" vert-adv-y="1000"  />

      
      <glyph glyph-name="uni0406" unicode="&#x0406;" d="M2503 1146Q2503 1132 2483.50 1118Q2464 1104 2449 1104Q2445 1108 2445 1122Q2445 1157 2489 1157Q2503 1157 2503 1146M2393 1048Q2393 1033 2355 1018Q2328 1009 2278 985Q2196 936 2019 711Q1901 552 1782 394Q1585 133 1371 10Q1131-128 815-128Q622-128 507-58Q369-52 268-10Q124 49 124 162Q124 267 248 322Q342 364 463 364Q542 456 693 519Q836 580 964 584Q999 585 1064 584Q1065 618 1085 646Q1094 658 1096 658L1099 658Q1091 642 1082.50 626Q1074 610 1074 583Q1228 571 1304 504Q1436 521 1580 588Q1687 638 1833 734Q1953 814 2074 894Q2153 944 2219 979Q2242 989 2285 1011Q2309 1026 2333 1040Q2364 1057 2385 1057Q2393 1057 2393 1048M2273 995L2273 996Q2189 957 2072 878Q1955 799 1838 720Q1695 624 1588 571Q1448 501 1324 479Q1359 435 1359 375Q1359 215 1166 90.50Q973-34 686-55Q645-58 557-58L557-59Q667-115 831-115Q1075-115 1294 6Q1499 118 1656 321Q1743 435 1831 548Q1934 680 2014 769Q2161 932 2273 995M1277 501Q1209 558 1075 570Q1083 533 1130 514Q1168 498 1212 498Q1257 498 1277 501M1334 376Q1334 434 1299 475Q1264 470 1210 470Q1154 470 1116 493Q1071 520 1065 571Q1030 574 1005 574Q867 574 730 520Q584 462 500 363Q634 357 688 289Q694 281 702 265L699 260Q698 261 688 276Q641 346 494 353Q426 271 426 162Q426 28 541-45Q579-47 603-47L613-47Q923-45 1142 93Q1334 214 1334 376M493-44L493-43Q384 33 384 162Q384 269 455 354Q341 352 262 313Q158 262 158 161Q158 63 283 6Q374-35 493-44Z"  horiz-adv-x="1615" vert-adv-y="1000"  />

      
      <glyph glyph-name="uni0456" unicode="&#x0456;" d="M235 293Q235 279 215.50 265Q196 251 181 251Q177 255 177 269Q177 304 221 304Q235 304 235 293M176 98Q176 87 108 34Q55-7 21-7Q-9-7-9 16Q-9 39 26 84Q55 122 81 143L81 144Q65 133 33 108Q21 97-3 77Q-9 73-13 73L-14 75Q-4 98 51 133.50Q106 169 134 169Q141 169 146 167L146 165Q146 163 95 101.50Q44 40 44 24Q45 21 47 18Q49 15 53 15Q70 15 116.50 55.50Q163 96 176 99L176 98Z"  horiz-adv-x="161" vert-adv-y="1000"  />

      
      <glyph glyph-name="uni0491" unicode="&#x0491;" d="M200 97Q190 67 90 9Q64-6 40-6Q10-6 10 15Q10 39 54.50 93Q99 147 99 148Q99 153 95 154L48 108Q56 121 70 148Q63 144 27.50 112Q-8 80-9 80Q-10 80-11 81Q-12 82-13 84Q-12 86-11 87Q10 108 31 130Q57 155 78 164Q81 172 85 181L163 259Q137 197 129 188Q129 188 113 172Q143 172 143 150Q143 133 104 85Q65 37 64 23L66 19Q70 17 74 17Q92 17 135 50Q165 73 194 97L197 97L200 97Z"  horiz-adv-x="186" vert-adv-y="1000"  />

      
      <glyph glyph-name="unib5" unicode="&#xb5;" d="M334 98Q334 89 287 51Q247 20 227 8Q204-6 179-6Q148-6 148 18Q148 48 203 103L201 105Q136 48 73 10Q46-6 23-6Q7-6 2 7Q-11-8-24.50-41.50Q-38-75-38-93Q-38-95-38-99Q-37-102-37-104Q-37-106-38-107Q-39-107-40-107Q-58-107-58-83Q-58-38-7 38Q33 96 80 143L80 144Q61 133 38.50 113.50Q16 94-4 77Q-10 73-12 73Q-13 73-14 73L-15 75Q-15 89 68 147Q100 169 129 169Q144 169 144 164Q144 163 94 102Q44 41 44 25Q44 17 54 17Q85 17 204 120Q228 140 265 168Q271 171 282 171Q303 171 303 165Q303 162 252.50 101.50Q202 41 202 26Q202 16 210 16Q230 16 280 58Q330 100 331 100Q333 99 334 98Z"  horiz-adv-x="320" vert-adv-y="1000"  />

      
      <glyph glyph-name="uni03BC" unicode="&#x03BC;" d="M334 98Q334 89 287 51Q247 20 227 8Q204-6 179-6Q148-6 148 18Q148 48 203 103L201 105Q136 48 73 10Q46-6 23-6Q7-6 2 7Q-11-8-24.50-41.50Q-38-75-38-93Q-38-95-38-99Q-37-102-37-104Q-37-106-38-107Q-39-107-40-107Q-58-107-58-83Q-58-38-7 38Q33 96 80 143L80 144Q61 133 38.50 113.50Q16 94-4 77Q-10 73-12 73Q-13 73-14 73L-15 75Q-15 89 68 147Q100 169 129 169Q144 169 144 164Q144 163 94 102Q44 41 44 25Q44 17 54 17Q85 17 204 120Q228 140 265 168Q271 171 282 171Q303 171 303 165Q303 162 252.50 101.50Q202 41 202 26Q202 16 210 16Q230 16 280 58Q330 100 331 100Q333 99 334 98Z"  horiz-adv-x="320" vert-adv-y="1000"  />

      
      </font>
</defs>
</svg>
